<?xml version="1.0" standalone="no"?>
<!DOCTYPE svg PUBLIC "-//W3C//DTD SVG 20010904//EN"
 "http://www.w3.org/TR/2001/REC-SVG-20010904/DTD/svg10.dtd">
<svg version="1.0" xmlns="http://www.w3.org/2000/svg"
 width="512.000000pt" height="512.000000pt" viewBox="0 0 512.000000 512.000000"
 preserveAspectRatio="xMidYMid meet">
<metadata>
Created by potrace 1.14, written by Peter Selinger 2001-2017
</metadata>
<g transform="translate(0.000000,512.000000) scale(0.100000,-0.100000)"
fill="#000000" stroke="none">
<path d="M2751 3671 c-10 -6 -9 -10 3 -14 8 -3 18 -2 21 3 8 13 -9 20 -24 11z"/>
<path d="M3010 3660 c0 -5 5 -10 11 -10 5 0 7 5 4 10 -3 6 -8 10 -11 10 -2 0
-4 -4 -4 -10z"/>
<path d="M3206 3613 c-6 -14 -5 -15 5 -6 7 7 10 15 7 18 -3 3 -9 -2 -12 -12z"/>
<path d="M2679 3573 c-13 -16 -12 -17 4 -4 9 7 17 15 17 17 0 8 -8 3 -21 -13z"/>
<path d="M3164 3565 c4 -24 16 -30 16 -7 0 12 -4 22 -9 22 -5 0 -8 -7 -7 -15z"/>
<path d="M2987 3506 c-4 -11 -5 -21 -2 -24 3 -3 5 1 6 9 0 9 3 7 8 -4 6 -17 8
-16 20 9 10 24 10 26 -2 15 -12 -9 -16 -9 -19 1 -3 7 -7 5 -11 -6z"/>
<path d="M2800 3491 c0 -5 6 -14 14 -20 12 -10 13 -8 9 8 -5 21 -23 30 -23 12z"/>
<path d="M2685 3460 c-3 -6 1 -7 9 -4 18 7 21 14 7 14 -6 0 -13 -4 -16 -10z"/>
<path d="M3625 3451 c-3 -5 -1 -12 5 -16 5 -3 10 1 10 9 0 18 -6 21 -15 7z"/>
<path d="M2587 3423 c-4 -3 -7 -11 -7 -17 0 -6 5 -5 12 2 6 6 9 14 7 17 -3 3
-9 2 -12 -2z"/>
<path d="M2959 3403 c-13 -16 -12 -17 4 -4 16 13 21 21 13 21 -2 0 -10 -8 -17
-17z"/>
<path d="M2972 3379 c-5 -11 -11 -20 -15 -20 -21 2 -26 -2 -36 -29 -8 -24 -7
-30 4 -30 9 0 12 6 9 15 -5 13 5 19 27 17 4 -1 15 8 24 18 12 13 14 20 5 20
-7 0 -10 7 -6 15 3 8 3 15 0 15 -2 0 -8 -9 -12 -21z"/>
<path d="M2547 3369 c-4 -16 -3 -18 9 -8 7 6 11 15 8 20 -8 13 -11 11 -17 -12z"/>
<path d="M3550 3370 c-11 -16 -17 -17 -29 -7 -11 9 -13 9 -8 0 4 -7 -1 -14
-13 -18 -11 -3 -20 -13 -20 -22 0 -13 -3 -13 -15 -3 -19 16 -34 5 -17 -12 16
-16 15 -28 -3 -28 -19 0 -19 -7 -1 -25 16 -17 27 -9 19 13 -4 10 -2 13 5 8 6
-3 14 -1 18 5 4 8 3 9 -4 5 -19 -11 -14 9 6 27 10 10 22 14 25 10 4 -3 7 -1 7
6 0 7 4 10 10 6 5 -3 17 6 26 20 20 30 14 43 -6 15z"/>
<path d="M2650 3331 c0 -25 6 -27 13 -6 4 8 2 17 -3 20 -6 4 -10 -3 -10 -14z"/>
<path d="M3870 3320 c-9 -6 -10 -10 -3 -10 6 0 15 5 18 10 8 12 4 12 -15 0z"/>
<path d="M2378 3303 c6 -3 9 -10 5 -16 -4 -7 1 -6 11 2 15 12 17 12 14 0 -2
-8 3 -13 11 -11 9 2 11 -3 7 -13 -3 -9 -6 -19 -6 -21 0 -2 -14 -4 -31 -4 -17
0 -28 -4 -24 -10 3 -5 2 -10 -4 -10 -6 0 -24 -13 -40 -29 -24 -23 -27 -30 -15
-35 9 -3 12 -1 9 4 -3 6 1 10 9 10 9 0 16 -4 16 -10 0 -10 -13 -14 -42 -11 -9
1 -19 -3 -23 -9 -3 -5 -11 -10 -16 -10 -6 0 -7 5 -4 10 3 6 1 10 -5 10 -7 0
-9 -7 -6 -16 3 -9 6 -20 6 -25 0 -5 10 -1 22 11 12 11 23 18 25 16 3 -2 1 -31
-3 -65 l-6 -60 -34 25 c-19 15 -31 31 -27 40 3 7 9 12 13 9 5 -3 6 5 2 17 -3
12 -7 17 -9 11 -3 -7 -11 -9 -19 -6 -18 7 -18 -16 0 -42 22 -33 4 -177 -26
-209 -10 -11 -18 -14 -18 -8 0 16 -27 15 -33 0 -2 -7 -4 8 -4 35 0 28 4 47 11
47 6 0 4 5 -4 10 -8 5 -10 10 -4 10 5 0 16 -6 23 -12 11 -11 13 -8 9 14 -6 30
18 48 25 20 3 -12 5 -9 6 7 1 17 -3 22 -14 17 -10 -3 -15 1 -15 11 0 13 -3 14
-12 5 -18 -18 -32 -14 -17 5 12 14 12 16 0 8 -9 -5 -12 -4 -7 3 3 6 15 9 26 7
11 -2 20 0 20 6 0 5 -7 9 -15 9 -8 0 -15 4 -15 9 0 5 -8 18 -17 27 -17 17 -17
18 0 11 12 -4 17 -3 15 4 -2 6 -6 9 -9 7 -3 -2 -13 3 -21 10 -14 11 -16 9 -14
-18 2 -25 -2 -30 -18 -29 -12 0 -15 3 -8 6 6 2 12 12 12 20 0 14 -3 13 -22 -3
l-21 -19 6 37 c3 21 2 40 -3 43 -11 7 -22 -31 -18 -65 2 -13 -1 -25 -7 -25 -5
0 -15 -4 -22 -8 -8 -5 -13 4 -15 30 -2 31 -7 37 -22 35 -12 -2 -16 1 -10 9 4
7 3 10 -4 5 -10 -6 -7 -110 4 -128 3 -4 1 -8 -4 -8 -14 0 -34 27 -24 34 10 6
3 74 -9 82 -5 3 -9 -2 -9 -11 0 -9 -4 -14 -10 -10 -13 8 -1 35 15 35 8 0 17 6
21 13 4 6 3 9 -1 4 -5 -4 -17 1 -28 10 -20 17 -20 17 -13 -1 5 -15 4 -17 -7
-8 -11 9 -13 4 -13 -29 1 -23 -3 -43 -8 -47 -5 -3 -6 0 -3 5 9 15 -18 24 -31
11 -14 -14 -4 31 11 50 5 7 7 15 3 19 -3 3 -6 1 -6 -7 0 -8 -4 -9 -12 -3 -19
15 -47 12 -41 -4 3 -7 -2 -16 -11 -19 -9 -3 -14 -10 -11 -14 3 -4 -2 -11 -11
-14 -11 -4 -15 -2 -11 7 5 14 -16 19 -42 11 -11 -4 -11 -7 0 -21 13 -15 12
-15 -8 -3 -12 8 -19 18 -16 24 3 5 2 7 -3 5 -5 -3 -21 -11 -36 -18 -16 -8 -24
-19 -20 -25 9 -16 14 -54 4 -39 -4 7 -13 9 -21 4 -10 -6 -9 -12 4 -25 9 -9 21
-14 26 -10 5 3 4 -6 -2 -20 -8 -16 -17 -22 -27 -19 -13 5 -12 8 4 20 15 11 15
13 2 13 -9 0 -18 10 -22 22 -4 18 -8 20 -18 10 -16 -16 -33 -15 -19 1 6 8 8
17 4 20 -3 4 -2 7 3 7 6 0 15 -5 22 -12 8 -8 12 -9 12 -1 0 6 -6 14 -12 17 -7
3 1 4 17 1 25 -4 27 -4 11 6 -13 8 -25 8 -43 0 -14 -7 -23 -15 -19 -18 3 -3
-2 -12 -12 -19 -14 -11 -15 -15 -3 -23 9 -6 10 -11 2 -15 -6 -4 -11 -2 -11 3
0 15 -13 14 -36 -5 -16 -13 -16 -15 -1 -10 9 3 17 1 17 -4 0 -6 -6 -10 -12
-10 -8 -1 -6 -6 5 -14 16 -12 16 -14 2 -20 -9 -3 -13 -2 -10 4 3 6 -1 10 -10
10 -10 0 -15 -6 -12 -13 3 -8 -4 -14 -16 -15 -17 -1 -19 1 -7 8 8 5 10 10 4
10 -16 0 -35 -25 -26 -35 4 -5 1 -5 -5 -1 -16 9 -62 -24 -63 -44 0 -12 -2 -12
-9 -2 -9 14 -22 2 -34 -30 -7 -19 -27 -25 -27 -8 0 6 -5 10 -11 10 -6 0 -9 -8
-7 -17 2 -10 -5 -23 -17 -29 -11 -6 -19 -16 -18 -22 2 -6 -4 -9 -11 -6 -8 3
-12 12 -9 21 3 8 0 19 -7 23 -11 7 -10 12 4 25 12 13 14 21 7 28 -17 17 -41
16 -41 -1 0 -15 -2 -15 -11 -2 -9 12 -10 10 -6 -8 4 -15 1 -22 -6 -19 -7 2
-11 13 -10 25 1 11 -4 26 -12 32 -8 7 -15 9 -15 5 0 -4 -6 -2 -14 5 -16 12
-11 40 6 40 6 0 5 -6 -2 -15 -7 -9 -8 -15 -2 -15 5 0 13 7 16 16 9 22 8 24
-11 24 -16 0 -16 2 -3 11 11 8 12 12 3 16 -7 2 -13 9 -13 14 0 6 4 8 9 5 5 -4
7 3 4 15 -3 11 -12 23 -19 26 -8 3 -11 10 -7 15 4 7 -4 9 -23 5 -24 -4 -26 -3
-12 7 25 18 14 86 -14 86 -6 0 -4 -8 6 -19 14 -16 15 -20 2 -30 -19 -16 -56 2
-56 28 0 12 -11 23 -30 30 -22 7 -30 7 -30 -1 0 -6 -8 -4 -19 6 -14 13 -24 14
-45 6 -37 -14 -45 -12 -22 5 19 14 18 15 -12 15 -19 0 -35 -6 -38 -14 -3 -8
-11 -13 -18 -10 -16 6 -124 -28 -183 -58 -40 -19 -48 -29 -44 -51 1 -5 -3 -6
-9 -2 -5 3 -15 -5 -21 -18 -6 -13 -24 -30 -39 -38 -45 -22 -153 -89 -175 -108
-11 -10 -60 -30 -108 -45 -55 -17 -91 -34 -94 -44 -4 -9 -10 -19 -15 -23 -14
-10 -26 -96 -15 -115 11 -20 54 -64 63 -64 3 0 18 -8 32 -18 25 -17 162 -55
237 -66 17 -2 32 -5 35 -6 3 -1 16 -1 29 0 17 1 22 -2 19 -12 -4 -8 1 -14 11
-15 37 -3 107 -27 126 -43 11 -10 26 -15 32 -13 7 3 37 -3 65 -13 29 -10 63
-17 75 -15 23 2 116 -13 145 -24 14 -6 18 -2 18 14 0 24 10 27 28 9 9 -9 12
-8 13 8 0 10 3 13 6 7 2 -7 11 -13 19 -13 9 0 13 3 11 8 -3 4 -1 16 4 27 8 18
8 18 6 -4 -1 -13 4 -26 12 -29 8 -3 11 0 7 6 -11 18 46 67 79 67 17 0 33 4 36
8 3 4 28 -2 55 -14 42 -18 86 -33 131 -42 7 -2 16 -6 19 -10 4 -4 19 -7 34 -7
15 0 38 -9 52 -19 13 -11 33 -21 43 -23 11 -1 29 -11 39 -20 19 -17 42 -15 31
3 -4 6 2 6 17 0 68 -27 62 -26 101 -17 20 5 27 3 22 -4 -5 -8 14 -11 62 -9 39
1 75 -1 82 -5 6 -4 18 -3 25 3 9 7 16 7 24 -1 9 -9 12 -9 12 0 0 8 7 9 25 2
27 -10 58 -3 49 11 -3 5 6 5 20 -1 17 -6 26 -6 26 0 0 6 7 10 15 10 9 0 12 6
9 15 -4 10 0 15 11 15 9 0 14 -4 11 -9 -12 -19 89 28 107 50 11 13 26 23 33
21 8 -2 14 3 14 9 0 7 10 1 21 -12 21 -24 21 -24 15 -1 -8 23 -3 25 57 24 15
0 27 3 27 7 0 8 9 10 55 14 14 1 25 8 25 14 0 7 3 12 8 11 13 -4 112 36 112
45 0 5 6 7 14 4 8 -3 20 0 26 8 9 11 6 15 -17 19 -15 2 -4 3 25 2 31 -2 58 2
65 8 7 7 23 13 37 14 94 8 136 16 142 25 3 6 39 10 85 10 43 -1 83 3 89 8 6 5
34 10 62 11 29 1 52 5 52 9 0 12 -71 41 -87 35 -9 -4 -27 1 -40 10 -14 8 -27
13 -31 10 -3 -3 0 -6 6 -6 6 0 9 -7 6 -15 -5 -11 -1 -14 12 -9 13 4 12 1 -4
-8 -12 -8 -20 -17 -16 -20 3 -4 -3 -4 -13 -2 -10 3 -24 14 -30 24 -10 15 -9
17 7 13 11 -3 17 -10 13 -16 -3 -6 -1 -7 5 -3 19 12 9 57 -16 77 -14 10 -28
16 -32 14 -5 -3 -11 -1 -15 5 -4 6 -11 7 -17 4 -6 -4 -8 1 -4 14 5 15 1 24
-16 34 -13 7 -27 11 -31 10 -5 -1 -6 2 -2 8 4 6 1 18 -6 26 -11 13 -9 14 14 9
18 -5 27 -3 27 5 0 6 -4 9 -9 6 -5 -3 -11 1 -14 9 -5 11 -1 12 17 5 23 -8 36
-5 36 11 0 4 -10 5 -22 2 -13 -3 -20 -2 -16 2 4 4 0 14 -10 21 -15 12 -14 12
8 7 l25 -5 -25 18 c-14 9 -26 18 -28 19 -9 6 13 35 23 31 17 -6 35 13 28 30
-7 18 2 18 21 -2 25 -24 20 -42 -9 -36 -18 3 -25 0 -25 -12 0 -10 6 -13 15
-10 10 4 15 0 15 -15 0 -12 4 -21 8 -21 5 0 16 -16 26 -36 17 -37 14 -94 -5
-94 -5 0 0 -13 12 -30 27 -36 37 -31 35 15 -1 31 1 34 21 30 24 -4 32 18 11
31 -6 4 -8 3 -4 -4 9 -15 -7 -23 -24 -11 -8 5 -10 9 -5 9 15 0 16 43 2 52 -9
6 -8 8 3 8 20 0 62 -39 88 -82 16 -25 20 -45 17 -78 -2 -25 -1 -40 3 -34 8 11
36 16 107 18 33 1 56 7 68 19 11 11 25 16 37 12 15 -5 18 -3 14 9 -5 13 -1 14
25 6 18 -5 33 -5 36 1 4 5 23 10 43 10 31 2 32 3 9 6 -16 3 -25 9 -21 15 4 6
2 8 -3 5 -14 -9 -44 38 -33 49 6 6 1 15 -13 23 -18 11 -20 11 -9 0 17 -18 15
-30 -3 -23 -9 4 -15 0 -15 -9 0 -8 8 -14 17 -13 12 1 19 -7 21 -23 2 -15 0
-21 -7 -16 -6 3 -8 11 -5 17 4 7 2 8 -5 4 -6 -4 -8 -12 -5 -18 4 -6 1 -9 -7
-6 -9 3 -13 18 -13 39 2 53 7 78 15 73 15 -9 19 31 5 42 -9 6 -13 13 -10 17 3
3 -4 8 -15 12 -12 4 -18 11 -15 17 5 7 2 9 -8 6 -10 -4 -15 -1 -15 10 0 10 -5
28 -11 42 -11 25 -11 25 -11 2 -1 -13 -5 -20 -11 -17 -5 3 -10 0 -10 -8 0 -8
-7 -17 -15 -21 -8 -3 -15 -1 -15 3 0 5 6 11 13 14 6 2 0 6 -16 9 -22 4 -25 3
-16 -8 6 -8 8 -14 4 -14 -4 0 -2 -7 5 -15 18 -22 -4 -18 -24 4 -10 11 -15 25
-10 32 5 8 3 10 -6 4 -7 -4 -16 -2 -21 6 -6 10 -9 10 -9 2 0 -13 57 -73 70
-73 4 0 13 -11 20 -25 7 -14 20 -25 29 -25 14 0 14 -2 1 -10 -12 -8 -12 -10 2
-15 10 -4 21 -4 27 -1 5 4 13 1 17 -5 4 -8 3 -9 -5 -5 -16 10 -26 -21 -11 -39
19 -23 9 -70 -17 -73 -13 -2 -23 2 -23 8 0 6 -4 8 -10 5 -5 -3 -10 -1 -10 5 0
8 9 10 25 6 l26 -7 -23 41 c-24 41 -56 66 -44 33 4 -10 4 -14 -1 -10 -4 5 -8
22 -9 39 -1 16 -6 34 -11 39 -5 5 -8 -13 -7 -44 l3 -52 -16 29 c-10 20 -17 25
-23 17 -5 -9 -9 -8 -14 4 -3 10 -12 15 -21 11 -9 -3 -15 1 -15 10 0 10 6 14
15 10 8 -3 15 -1 15 3 0 11 -22 19 -37 14 -7 -2 -9 -12 -6 -21 4 -11 -1 -9
-15 6 -11 13 -18 30 -16 37 3 7 -3 15 -13 18 -15 4 -16 5 -1 6 9 0 24 -9 32
-21 14 -19 16 -20 16 -5 0 16 2 16 15 5 8 -7 22 -19 30 -27 9 -7 14 -19 11
-27 -3 -8 0 -11 9 -8 11 5 11 11 3 30 -8 18 -8 27 3 41 8 9 9 14 2 10 -7 -5
-13 1 -15 15 -2 13 -9 22 -16 20 -8 -1 -11 2 -7 8 3 5 -1 10 -9 10 -19 0 -20
-11 -3 -30 10 -12 9 -12 -5 -1 -25 19 -22 38 8 58 l26 17 -24 18 c-34 26 -46
22 -44 -14 1 -31 -1 -33 -31 -33 -20 0 -29 -3 -23 -9 6 -6 9 -19 9 -31 -1 -17
-2 -17 -6 -2 -2 9 -9 15 -14 11 -5 -3 -12 2 -15 10 -8 21 -31 20 -43 -1 -5
-10 -13 -15 -16 -11 -4 4 8 21 26 38 27 24 30 30 14 27 -11 -2 -30 -8 -42 -15
-15 -8 -24 -9 -28 -2 -5 8 -11 8 -20 0 -9 -8 -11 -5 -7 15 2 14 9 25 14 25 6
0 8 7 5 15 -4 8 -2 17 3 20 6 4 10 12 10 18 0 7 -10 -3 -21 -20 -24 -38 -28
-39 -72 -17 -21 11 -28 12 -19 3 29 -31 -1 -76 -33 -49 -12 10 -16 9 -21 -3
-3 -9 -11 -14 -18 -11 -7 3 -19 -2 -26 -11 -7 -8 -21 -15 -31 -15 -10 0 -20
-8 -24 -19 -3 -10 -14 -26 -25 -36 -15 -14 -23 -15 -34 -6 -11 9 -15 8 -20 -4
-6 -15 -26 -17 -37 -2 -9 12 -39 -3 -39 -20 0 -13 -2 -13 -17 -2 -14 13 -14
10 1 -20 14 -27 20 -31 28 -20 8 11 9 10 4 -4 -3 -9 -1 -28 4 -42 5 -14 6 -25
2 -25 -4 0 -13 -18 -19 -40 -5 -22 -6 -40 -2 -40 5 0 9 5 9 11 0 8 5 8 15 -1
11 -9 18 -10 28 -1 8 6 18 7 22 3 5 -4 5 -2 1 5 -7 12 31 40 47 35 5 -1 6 2 2
8 -8 13 1 13 28 -2 21 -11 21 -10 7 8 -20 26 -32 34 -42 28 -4 -3 -8 5 -8 18
1 22 1 22 15 4 19 -25 30 -14 15 15 -11 19 -10 21 4 16 9 -4 16 -2 16 2 0 5
-6 12 -12 14 -10 4 -10 6 0 6 28 2 53 -46 56 -111 0 -16 4 -28 8 -28 5 0 8 -7
8 -16 0 -9 -5 -12 -11 -8 -7 4 -10 1 -7 -7 3 -8 12 -13 22 -11 18 3 21 -9 5
-25 -15 -15 -3 -33 20 -33 20 0 45 -23 35 -33 -3 -3 -18 -1 -34 3 -16 4 -31 6
-33 3 -3 -2 -8 0 -12 6 -3 6 -1 11 4 11 17 0 13 17 -5 24 -8 3 -12 2 -9 -4 3
-6 1 -10 -5 -10 -19 0 -63 -47 -51 -54 6 -4 11 -1 11 6 0 8 12 13 30 14 16 1
27 -3 24 -7 -3 -5 3 -6 12 -2 12 4 15 3 10 -5 -4 -7 -16 -12 -27 -12 -11 0
-30 -6 -42 -14 -19 -13 -80 -19 -155 -15 -22 1 -22 2 -5 15 20 15 37 18 29 5
-3 -5 2 -11 12 -13 15 -4 18 -1 14 20 -4 19 -2 23 9 16 10 -6 9 -1 -3 16 -9
14 -21 24 -26 23 -6 -2 -9 8 -6 22 3 18 1 23 -10 19 -14 -5 -29 25 -29 58 0
10 -8 20 -18 23 -11 4 -19 15 -19 26 0 15 -7 19 -36 19 -33 0 -36 2 -30 23 3
12 6 26 6 31 0 5 7 3 15 -4 12 -10 15 -10 15 1 1 9 8 5 20 -10 11 -13 20 -18
20 -11 0 7 7 10 16 6 13 -5 14 -4 6 7 -7 8 -9 16 -6 19 3 3 -7 8 -21 12 -25 6
-25 7 -8 33 10 15 13 24 7 20 -8 -4 -23 14 -41 51 -20 40 -35 57 -49 57 -12 0
-18 -6 -16 -17 1 -9 -2 -19 -8 -23 -18 -11 -1 59 17 72 13 10 19 10 31 0 12
-9 16 -9 20 1 3 9 7 10 17 2 11 -9 12 -7 8 11 -5 18 -3 21 10 16 10 -4 17 -2
17 4 0 6 7 9 15 6 8 -4 17 -2 20 3 3 5 -8 7 -25 5 -18 -3 -28 0 -25 5 4 6 16
10 28 10 18 0 19 2 7 10 -14 9 -7 14 13 11 4 -1 10 6 13 14 4 8 10 15 15 15 5
0 18 8 29 17 20 17 20 17 -3 31 -12 7 -14 11 -5 8 19 -6 33 8 23 24 -4 6 -14
5 -28 -4 -12 -7 -32 -13 -44 -12 -19 2 -21 0 -10 -12 10 -13 9 -14 -11 -3 -13
7 -25 18 -28 25 -3 8 -17 13 -32 13 -15 0 -21 -2 -14 -4z m-14 -117 c-3 -9
-10 -13 -15 -10 -5 3 -3 11 4 19 15 16 19 13 11 -9z m-1490 -52 c3 -8 2 -12
-4 -9 -6 3 -10 10 -10 16 0 14 7 11 14 -7z m-20 -9 c3 -8 1 -15 -4 -15 -6 0
-10 7 -10 15 0 8 2 15 4 15 2 0 6 -7 10 -15z m1506 11 c0 -2 -7 -6 -15 -10 -8
-3 -15 -1 -15 4 0 6 7 10 15 10 8 0 15 -2 15 -4z m-548 -38 c-7 -7 -12 -8 -12
-2 0 14 12 26 19 19 2 -3 -1 -11 -7 -17z m165 -10 c-3 -8 -6 -5 -6 6 -1 11 2
17 5 13 3 -3 4 -12 1 -19z m-307 1 c0 -5 -5 -7 -12 -3 -8 5 -9 0 -5 -17 6 -23
5 -23 -8 -5 -12 16 -12 22 -2 28 17 11 27 10 27 -3z m1163 -14 c4 -8 2 -17 -3
-20 -6 -4 -10 -4 -10 -1 0 2 -3 11 -6 20 -3 9 -2 16 4 16 5 0 12 -7 15 -15z
m-2013 -25 c-6 -11 -13 -20 -16 -20 -2 0 0 9 6 20 6 11 13 20 16 20 2 0 0 -9
-6 -20z m872 -5 c3 -14 1 -28 -3 -31 -5 -3 -9 9 -9 25 0 38 6 40 12 6z m288
-18 c0 -16 -18 3 -23 25 -6 22 -5 22 8 4 8 -11 15 -24 15 -29z m-1105 13 c-16
-18 -16 -20 -2 -20 10 0 17 5 17 11 0 5 4 8 10 4 20 -12 -2 -30 -38 -30 -33 0
-50 12 -35 25 4 3 3 -1 -1 -7 -14 -24 12 -13 28 12 9 14 22 25 28 25 6 0 3 -9
-7 -20z m980 -6 c-1 -13 -8 -30 -15 -39 -9 -11 -9 -15 -1 -15 7 0 9 -5 5 -11
-5 -8 -10 -6 -16 5 -5 9 -14 14 -20 10 -7 -4 -8 2 -3 17 10 34 29 51 21 19 -7
-24 -6 -24 9 -5 14 18 14 20 -7 31 -21 11 -21 12 4 12 21 0 25 -5 23 -24z
m-921 0 c3 -8 2 -12 -4 -9 -6 3 -10 10 -10 16 0 14 7 11 14 -7z m1196 5 c0 -6
-7 -8 -16 -5 -8 3 -12 2 -9 -4 3 -6 1 -10 -4 -10 -6 0 -11 -5 -11 -12 0 -9 3
-9 12 0 7 7 15 12 19 12 14 0 0 -45 -18 -60 -10 -8 -20 -28 -22 -45 -5 -43 -9
-47 -37 -29 -16 11 -24 12 -24 5 0 -7 -4 -9 -10 -6 -6 3 1 17 15 31 14 14 23
30 20 35 -4 5 -3 15 2 22 8 12 9 15 13 45 1 9 5 2 9 -17 3 -19 11 -36 18 -38
12 -4 12 14 0 34 -10 16 10 53 28 53 8 0 15 -5 15 -11z m678 -20 c-11 -8 -5
-13 13 -11 3 1 6 -6 6 -14 0 -19 -7 -18 -23 4 -18 24 -17 43 2 35 13 -5 13 -7
2 -14z m-926 -11 c-8 -8 -9 -15 -1 -25 7 -7 8 -13 3 -13 -5 0 -3 -4 5 -9 13
-8 13 -12 0 -27 -12 -16 -12 -17 4 -11 13 5 17 1 17 -15 0 -17 -3 -18 -15 -8
-13 11 -13 8 -4 -18 8 -23 15 -29 30 -25 10 3 19 0 19 -6 0 -7 -10 -10 -25 -7
-26 5 -32 -3 -15 -20 7 -7 -1 -10 -27 -9 -21 1 -42 -2 -48 -6 -6 -4 -11 6 -12
27 -1 24 2 34 13 34 8 0 14 10 14 24 0 14 6 31 13 38 13 14 15 37 4 55 -8 12
21 48 31 38 3 -3 0 -11 -6 -17z m790 -21 l-22 -10 22 -26 23 -25 -31 25 c-29
22 -30 25 -12 34 15 9 16 13 6 24 -11 11 -9 11 12 1 l25 -13 -23 -10z m308 18
c0 -9 -6 -12 -16 -8 -13 5 -13 7 -2 14 17 11 18 11 18 -6z m-995 -5 c3 -5 1
-10 -4 -10 -6 0 -11 5 -11 10 0 6 2 10 4 10 3 0 8 -4 11 -10z m-911 -9 c3 -5
-1 -11 -9 -15 -15 -6 -29 7 -18 18 9 9 21 8 27 -3z m1948 -38 c11 -12 17 -26
14 -31 -3 -6 1 -12 9 -16 8 -3 15 -11 14 -18 0 -10 -2 -10 -6 0 -3 9 -9 10
-18 2 -9 -7 -16 -6 -25 5 -7 8 -21 15 -31 15 -11 0 -19 4 -19 9 0 6 12 6 30 1
19 -5 28 -5 25 1 -4 5 -1 9 6 9 8 0 6 7 -5 19 -10 11 -24 17 -32 14 -17 -6
-18 9 -2 25 10 10 14 10 17 0 2 -7 12 -23 23 -35z m-2112 11 c0 -8 -5 -14 -12
-14 -6 0 -8 3 -5 7 4 3 2 12 -5 20 -8 11 -7 12 6 7 9 -3 16 -12 16 -20z m2365
6 c-3 -5 -12 -10 -18 -10 -7 0 -6 4 3 10 19 12 23 12 15 0z m-2477 -20 c-14
-22 -24 -19 -15 5 4 8 11 15 17 15 6 0 6 -7 -2 -20z m66 12 c3 -5 -1 -9 -9 -9
-8 0 -15 4 -15 9 0 4 4 8 9 8 6 0 12 -4 15 -8z m836 -12 c0 -13 -5 -18 -15
-14 -12 5 -13 10 -4 20 15 19 19 18 19 -6z m82 -13 c-7 -8 -9 -17 -5 -20 3 -4
0 -7 -8 -8 -8 0 -4 -4 9 -9 23 -10 30 -30 10 -30 -6 0 -3 -10 8 -22 15 -19 16
-20 2 -9 -16 12 -18 11 -18 -3 0 -9 5 -16 10 -16 6 0 5 -6 -2 -14 -19 -20 -27
-5 -30 52 -1 24 -8 24 -12 0 -3 -22 -17 -39 -27 -33 -5 4 -9 -2 -9 -11 0 -15
-2 -16 -12 -5 -10 11 -10 14 0 18 6 3 12 12 12 22 0 9 5 22 10 27 6 6 8 19 4
28 -5 14 -9 15 -15 4 -6 -9 -9 -9 -9 -1 0 17 19 26 33 15 8 -7 18 -3 32 14 11
12 21 21 24 19 2 -3 -1 -11 -7 -18z m822 -16 c-3 -3 -15 6 -27 18 l-22 24 27
-19 c14 -10 24 -21 22 -23z m-1945 18 c5 8 16 11 26 8 21 -9 10 -27 -16 -27
-13 0 -18 -5 -14 -12 4 -7 -1 -4 -9 6 -9 11 -16 25 -16 30 0 6 5 4 10 -4 8
-13 11 -13 19 -1z m1166 -26 c-5 -10 -7 -22 -6 -28 1 -5 -8 1 -19 14 -11 13
-18 27 -14 30 4 3 9 0 11 -6 8 -22 21 -14 16 10 -5 17 -3 20 7 10 8 -7 10 -19
5 -30z m555 17 c-8 -5 -17 -7 -19 -4 -3 3 1 9 9 14 8 5 17 7 19 4 3 -3 -1 -9
-9 -14z m378 -5 c-3 -3 -9 2 -12 12 -6 14 -5 15 5 6 7 -7 10 -15 7 -18z m237
7 c-3 -3 -11 0 -18 7 -9 10 -8 11 6 5 10 -3 15 -9 12 -12z m295 -9 c0 -19 -13
-9 -16 12 -1 8 2 13 7 9 5 -3 9 -12 9 -21z m-1755 -44 c2 -23 9 -47 16 -53 9
-8 11 -7 7 4 -7 20 18 45 26 25 2 -7 0 -16 -7 -19 -7 -2 -4 -5 6 -5 18 -1 25
-21 7 -21 -5 0 -10 -7 -10 -15 0 -8 -3 -15 -8 -15 -4 0 -7 -14 -7 -32 0 -17
-6 -33 -12 -35 -7 -3 -13 2 -13 11 0 9 -6 16 -14 16 -8 0 -22 3 -32 7 -12 4
-15 3 -10 -5 5 -8 2 -10 -8 -6 -9 3 -16 10 -16 16 0 5 5 6 10 3 6 -3 10 3 10
14 0 12 5 21 10 21 9 0 14 -14 11 -32 0 -4 8 -6 18 -5 21 1 18 24 -6 44 -12 9
-12 19 0 66 8 31 13 58 11 61 -2 3 -1 4 2 2 4 -3 8 -24 9 -47z m1195 23 c0
-12 3 -13 8 -5 5 8 12 2 21 -18 7 -16 17 -26 23 -23 7 4 8 2 4 -4 -4 -7 -1
-12 9 -12 21 0 29 -24 16 -49 -11 -19 -1 -35 21 -36 3 0 10 -4 15 -9 5 -5 3
-6 -4 -2 -7 4 -13 2 -13 -3 0 -14 17 -14 25 -1 4 6 15 1 26 -12 l20 -23 -12
25 c-10 21 -9 23 2 10 8 -8 20 -19 28 -26 12 -9 9 -11 -17 -10 -20 0 -37 -7
-47 -19 -16 -20 -16 -19 -6 2 14 28 14 33 -1 28 -14 -5 -45 39 -63 89 -6 17
-17 32 -24 34 -10 3 -10 0 -1 -18 6 -12 9 -24 6 -28 -3 -3 1 -13 10 -23 9 -10
14 -25 10 -34 -3 -9 -2 -13 4 -10 6 3 10 2 10 -3 0 -6 -7 -12 -15 -16 -8 -3
-15 -1 -15 5 0 6 -5 7 -11 3 -8 -4 -7 -9 2 -15 7 -4 16 -6 20 -4 9 6 44 -34
36 -41 -12 -12 -39 6 -33 22 3 8 2 13 -3 9 -20 -12 -38 7 -37 39 1 27 4 32 21
28 14 -3 9 6 -19 32 -46 40 -57 71 -23 60 19 -6 20 -5 10 8 -7 8 -10 17 -8 20
3 3 1 17 -5 32 -6 18 -6 25 0 21 6 -3 10 -14 10 -23z m-2120 -3 c0 -5 -4 -9
-8 -9 -5 0 -9 7 -9 15 0 8 4 12 9 9 4 -3 8 -9 8 -15z m103 6 c-3 -9 -8 -14
-10 -11 -3 3 -2 9 2 15 9 16 15 13 8 -4z m1992 5 c3 -5 2 -10 -4 -10 -5 0 -13
5 -16 10 -3 6 -2 10 4 10 5 0 13 -4 16 -10z m-2125 -10 c0 -5 -5 -10 -11 -10
-5 0 -7 5 -4 10 3 6 8 10 11 10 2 0 4 -4 4 -10z m2205 0 c3 -5 2 -10 -4 -10
-5 0 -13 5 -16 10 -3 6 -2 10 4 10 5 0 13 -4 16 -10z m-750 -30 c-3 -5 -12
-10 -18 -10 -7 0 -6 4 3 10 19 12 23 12 15 0z m485 -5 c0 -9 13 -24 30 -33 38
-22 38 -29 -1 -27 -25 2 -30 -1 -26 -17 7 -25 -10 -33 -18 -9 -3 11 -1 29 5
41 8 14 8 26 0 40 -7 14 -7 20 0 20 5 0 10 -7 10 -15z m559 -6 c-22 -13 -31
-11 -17 5 7 8 17 12 22 9 4 -3 2 -9 -5 -14z m-2444 0 c11 -16 1 -19 -13 -3 -7
8 -8 14 -3 14 5 0 13 -5 16 -11z m809 3 c-6 -4 -15 -22 -19 -39 -7 -33 -26
-57 -20 -26 13 66 17 73 33 73 11 0 13 -3 6 -8z m1680 -22 c-6 -6 -10 -3 -10
10 0 13 4 16 10 10 7 -7 7 -13 0 -20z m-2154 14 c0 -8 -19 -13 -24 -6 -3 5 1
9 9 9 8 0 15 -2 15 -3z m1084 -83 c-2 -2 -4 2 -4 10 0 11 -2 12 -9 1 -6 -10
-10 -7 -13 12 -3 14 -1 23 3 20 5 -3 9 0 9 5 0 6 -5 11 -10 11 -6 0 -5 6 2 14
11 12 14 7 19 -28 4 -22 5 -43 3 -45z m-1129 51 c-3 -3 -11 0 -18 7 -9 10 -8
11 6 5 10 -3 15 -9 12 -12z m457 -34 c-9 -9 -13 -8 -17 4 -4 10 -15 13 -31 10
-14 -2 -24 0 -24 7 0 6 10 10 23 8 15 -1 21 3 19 13 -2 10 4 8 19 -7 18 -18
20 -26 11 -35z m112 37 c-7 -16 -24 -21 -24 -6 0 8 7 13 27 20 1 1 0 -6 -3
-14z m-799 -5 c4 -6 -1 -7 -11 -3 -13 5 -15 3 -9 -7 5 -9 4 -11 -3 -6 -7 4
-12 11 -12 17 0 12 27 12 35 -1z m2405 -4 c0 -8 6 -16 13 -19 6 -2 8 -8 4 -13
-5 -5 -15 -1 -23 10 -16 23 -18 36 -4 36 6 0 10 -6 10 -14z m66 -1 c-3 -8 -1
-15 5 -15 6 0 7 -5 3 -11 -4 -8 -9 -7 -14 2 -8 12 -3 39 7 39 3 0 3 -7 -1 -15z
m54 5 c0 -5 -4 -10 -9 -10 -5 0 -12 -8 -14 -17 -3 -11 -5 -7 -6 10 -1 18 4 27
14 27 8 0 15 -4 15 -10z m-1527 -31 c15 -3 45 -60 47 -86 0 -2 -7 -3 -16 -3
-8 0 -13 4 -10 9 4 5 3 11 -2 13 -10 4 -52 72 -52 84 0 5 4 4 8 -2 4 -7 15
-13 25 -15z m-1564 -3 c12 -14 9 -18 -20 -29 -12 -4 -15 0 -11 19 5 27 14 30
31 10z m2744 1 c-2 -4 -3 -12 -3 -18 0 -17 -23 -5 -26 13 -1 10 4 15 15 14 9
-2 15 -6 14 -9z m-963 -12 c0 -8 -2 -15 -4 -15 -2 0 -6 7 -10 15 -3 8 -1 15 4
15 6 0 10 -7 10 -15z m94 -6 c-8 -14 -21 -11 -21 5 0 8 6 12 14 9 7 -3 10 -9
7 -14z m-194 8 c0 -2 -11 -18 -24 -36 -21 -27 -25 -30 -23 -13 0 12 3 19 6 17
2 -3 10 4 18 15 13 18 23 26 23 17z m445 -16 c3 -5 2 -12 -3 -15 -5 -3 -9 1
-9 9 0 17 3 19 12 6z m857 2 c-6 -2 -10 -9 -6 -14 3 -5 0 -9 -5 -9 -12 0 -14
13 -4 23 3 4 11 7 17 6 6 0 5 -3 -2 -6z m-2089 -18 c-3 -9 -8 -14 -10 -11 -3
3 -2 9 2 15 9 16 15 13 8 -4z m861 0 c6 -18 -2 -45 -15 -45 -14 0 -11 18 4 23
9 3 9 7 -2 20 -7 10 -9 17 -3 17 5 0 12 -7 16 -15z m-52 -15 c-1 -7 3 -18 9
-26 7 -8 9 -17 5 -21 -9 -9 -15 0 -18 28 -2 13 -7 28 -13 32 -6 5 -4 7 5 4 8
-2 14 -10 12 -17z m558 1 c-8 -6 -17 -8 -21 -5 -4 2 -6 -4 -5 -13 0 -10 -6
-19 -15 -21 -13 -2 -15 3 -12 23 4 20 11 25 37 25 23 0 27 -3 16 -9z m-96 -16
c-4 -8 -11 -12 -16 -9 -6 4 -5 10 3 15 19 12 19 11 13 -6z m-1597 -17 c-3 -8
-6 -5 -6 6 -1 11 2 17 5 13 3 -3 4 -12 1 -19z m847 -9 c-8 -14 -21 -11 -21 5
0 8 6 12 14 9 7 -3 10 -9 7 -14z m684 7 c-7 -7 -19 -11 -27 -8 -11 4 -10 7 5
13 29 12 36 10 22 -5z m92 0 c0 -2 -7 -7 -16 -10 -8 -3 -12 -2 -9 4 6 10 25
14 25 6z m-890 -21 c-7 -9 -15 -13 -19 -10 -3 3 1 10 9 15 21 14 24 12 10 -5z
m1480 5 c0 -5 7 -10 16 -10 20 0 13 -23 -9 -26 -9 -1 -16 1 -16 4 3 21 -3 31
-16 26 -8 -4 -12 -11 -8 -17 3 -6 1 -7 -6 -3 -9 6 -9 11 0 22 13 16 39 19 39
4z m-1920 -19 c13 -13 12 -14 -4 -8 -10 4 -22 7 -27 7 -5 0 -9 4 -9 8 0 14 25
10 40 -7z m707 -3 c-3 -8 -6 -5 -6 6 -1 11 2 17 5 13 3 -3 4 -12 1 -19z m1373
14 c0 -5 -7 -9 -15 -9 -8 0 -12 4 -9 9 3 4 9 8 15 8 5 0 9 -4 9 -8z m-2890
-28 c0 -2 -9 0 -20 6 -11 6 -20 13 -20 16 0 2 9 0 20 -6 11 -6 20 -13 20 -16z
m2111 9 c13 -16 12 -17 -3 -4 -17 13 -22 21 -14 21 2 0 10 -8 17 -17z m-2034
-20 c-3 -2 -9 -5 -14 -5 -4 0 -18 -4 -29 -9 -31 -11 -39 2 -12 22 17 13 27 15
41 7 10 -5 16 -12 14 -15z m1608 18 c3 -5 2 -12 -3 -15 -5 -3 -9 1 -9 9 0 17
3 19 12 6z m240 -2 c11 -16 1 -19 -13 -3 -7 8 -8 14 -3 14 5 0 13 -5 16 -11z
m239 3 c2 -4 -5 -9 -17 -9 -17 -2 -19 0 -7 7 18 12 18 12 24 2z m-584 -44 c0
-22 -13 -29 -30 -16 -12 8 -12 9 3 4 19 -6 23 4 6 21 -6 6 -8 17 -4 23 9 15
25 -5 25 -32z m-107 -8 c-3 -37 -1 -40 16 -31 21 12 31 5 31 -20 0 -9 6 -19
13 -22 6 -2 8 -8 4 -13 -5 -5 -17 1 -27 14 -10 12 -25 22 -34 22 -9 0 -16 8
-16 19 0 11 -5 23 -11 26 -7 5 -4 14 7 26 9 10 18 19 19 19 1 0 0 -18 -2 -40z
m-693 20 c0 -5 -5 -10 -11 -10 -5 0 -7 5 -4 10 3 6 8 10 11 10 2 0 4 -4 4 -10z
m1430 4 c0 -2 -9 -8 -19 -14 -14 -7 -22 -7 -27 2 -4 7 -3 8 4 4 7 -4 12 -3 12
2 0 5 7 9 15 9 8 0 15 -2 15 -3z m-1550 -14 c8 -5 11 -10 5 -10 -5 0 -17 5
-25 10 -8 5 -10 10 -5 10 6 0 17 -5 25 -10z m1284 -5 c-4 -8 -7 -15 -9 -15 -2
0 -5 7 -9 15 -3 9 0 15 9 15 9 0 12 -6 9 -15z m-1114 -12 c0 -2 -8 -3 -17 -1
-10 1 -25 -2 -33 -7 -13 -7 -13 -6 -2 7 11 14 52 15 52 1z m1275 1 c9 3 13 2
10 -3 -3 -6 2 -14 11 -19 11 -6 13 -11 5 -16 -6 -4 -11 -2 -11 5 0 8 -5 7 -17
-2 -16 -13 -17 -12 -4 4 12 16 10 17 -35 18 -30 1 -38 4 -21 6 18 3 25 9 20
16 -4 7 0 6 10 -2 9 -7 24 -11 32 -7z m160 -4 c-3 -5 1 -11 7 -13 7 -3 -2 -4
-19 -3 -18 2 -33 0 -33 -4 0 -14 -49 -8 -54 7 -4 9 -13 13 -22 9 -9 -3 -12 -2
-9 4 7 12 43 9 64 -4 9 -6 12 -5 8 1 -3 5 0 10 8 10 8 0 15 -4 15 -9 0 -4 5
-8 11 -8 6 0 9 7 6 14 -4 10 -1 13 8 9 8 -3 13 -9 10 -13z m-1371 1 c3 -5 -3
-11 -15 -14 -16 -4 -18 -3 -8 9 13 16 16 17 23 5z m866 0 c0 -6 -4 -12 -8 -15
-5 -3 -9 1 -9 9 0 8 4 15 9 15 4 0 8 -4 8 -9z m-794 -31 c0 -11 -6 -22 -14
-25 -7 -2 -11 -1 -9 3 2 4 7 15 10 25 8 22 13 22 13 -3z m254 8 c0 7 5 10 11
6 7 -4 7 -10 1 -16 -12 -12 -32 -2 -32 15 0 7 4 6 10 -3 7 -11 10 -11 10 -2z
m615 1 c-4 -6 -1 -10 6 -8 30 4 50 -2 44 -12 -4 -6 -13 -8 -20 -5 -7 2 -18 -1
-24 -7 -18 -18 -38 8 -21 28 14 17 25 20 15 4z m322 -11 c-3 -8 -6 -5 -6 6 -1
11 2 17 5 13 3 -3 4 -12 1 -19z m-1465 -12 c4 3 9 1 13 -5 4 -7 -5 -11 -24
-11 -34 0 -51 18 -30 31 9 6 18 3 25 -6 6 -8 13 -12 16 -9z m155 9 c0 -8 -4
-12 -9 -9 -5 3 -6 10 -3 15 9 13 12 11 12 -6z m93 5 c0 -9 -52 -20 -63 -13 -4
2 -5 7 -3 11 6 10 66 11 66 2z m805 -10 c3 -5 2 -10 -4 -10 -5 0 -13 5 -16 10
-3 6 -2 10 4 10 5 0 13 -4 16 -10z m222 -3 c2 -3 -8 -4 -22 -4 -14 0 -25 3
-25 8 0 7 38 4 47 -4z m56 6 c-7 -2 -19 -2 -25 0 -7 3 -2 5 12 5 14 0 19 -2
13 -5z m-977 -40 c-11 -11 -17 4 -9 23 7 18 8 18 11 1 2 -10 1 -21 -2 -24z
m310 15 c4 -7 3 -8 -4 -4 -7 4 -12 2 -12 -5 0 -7 -3 -10 -6 -6 -6 5 3 27 11
27 2 0 7 -5 11 -12z m74 -20 c0 -6 -6 -5 -15 2 -8 7 -15 14 -15 16 0 2 7 1 15
-2 8 -4 15 -11 15 -16z m517 -124 c-3 -3 -12 -4 -19 -1 -8 3 -5 6 6 6 11 1 17
-2 13 -5z"/>
<path d="M1860 2870 c20 -13 33 -13 25 0 -3 6 -14 10 -23 10 -15 0 -15 -2 -2
-10z"/>
<path d="M1831 2846 c2 -2 15 -9 29 -16 23 -12 24 -12 11 3 -7 10 -20 17 -29
17 -8 0 -13 -2 -11 -4z"/>
<path d="M1680 2776 c0 -2 8 -10 18 -17 15 -13 16 -12 3 4 -13 16 -21 21 -21
13z"/>
<path d="M2570 3290 c8 -5 10 -10 4 -10 -6 0 -11 -7 -11 -16 0 -15 2 -14 13 1
12 16 14 17 20 2 3 -9 10 -14 16 -11 10 6 -29 44 -46 44 -6 0 -4 -5 4 -10z"/>
<path d="M2645 3280 c-3 -5 -1 -10 4 -10 6 0 11 5 11 10 0 6 -2 10 -4 10 -3 0
-8 -4 -11 -10z"/>
<path d="M2935 3269 c-6 -8 -4 -10 5 -4 10 6 12 4 6 -11 -6 -15 -5 -17 5 -6 9
9 10 15 2 23 -8 8 -13 7 -18 -2z"/>
<path d="M3320 3270 c0 -5 5 -10 11 -10 5 0 7 5 4 10 -3 6 -8 10 -11 10 -2 0
-4 -4 -4 -10z"/>
<path d="M2375 3261 c-3 -6 3 -9 14 -8 11 0 17 5 15 9 -7 11 -22 10 -29 -1z"/>
<path d="M2540 3219 c-7 -11 -9 -23 -6 -27 3 -3 6 -1 6 5 0 6 9 9 22 5 14 -3
19 -2 14 7 -4 6 -13 8 -19 4 -7 -4 -6 0 2 10 8 11 9 17 3 17 -6 0 -16 -9 -22
-21z"/>
<path d="M2845 3216 c-20 -17 -24 -26 -15 -31 9 -5 11 -4 6 3 -4 7 -3 12 3 12
5 0 15 -8 20 -17 6 -10 11 -13 11 -7 0 5 -5 15 -12 22 -8 8 -8 12 -1 12 6 0
13 7 17 15 7 20 4 19 -29 -9z"/>
<path d="M2962 3227 c-9 -11 -10 -17 -2 -22 15 -9 23 -1 18 21 -3 15 -4 16
-16 1z"/>
<path d="M3628 3233 c6 -2 9 -10 6 -15 -4 -7 -2 -8 5 -4 13 9 5 26 -12 25 -9
0 -8 -2 1 -6z"/>
<path d="M3795 3229 c-4 -6 -5 -12 -2 -15 2 -3 7 2 10 11 7 17 1 20 -8 4z"/>
<path d="M2683 3202 c1 -14 5 -18 11 -12 7 7 6 14 -1 21 -9 9 -12 7 -10 -9z"/>
<path d="M3340 3204 c0 -8 5 -12 10 -9 6 4 8 11 5 16 -9 14 -15 11 -15 -7z"/>
<path d="M2923 3195 c-10 -10 -9 -16 1 -24 10 -9 15 -7 20 5 9 23 -6 36 -21
19z"/>
<path d="M3740 3205 c0 -18 19 -40 26 -32 4 4 0 15 -9 24 -9 10 -17 13 -17 8z"/>
<path d="M2770 3184 c0 -8 5 -12 10 -9 6 4 8 11 5 16 -9 14 -15 11 -15 -7z"/>
<path d="M1825 3180 c-3 -5 -1 -10 4 -10 6 0 11 5 11 10 0 6 -2 10 -4 10 -3 0
-8 -4 -11 -10z"/>
<path d="M2491 3164 c0 -11 3 -14 6 -6 3 7 2 16 -1 19 -3 4 -6 -2 -5 -13z"/>
<path d="M3535 3170 c-3 -6 1 -7 9 -4 18 7 21 14 7 14 -6 0 -13 -4 -16 -10z"/>
<path d="M3787 3157 c-9 -11 -17 -25 -17 -30 0 -4 -5 -5 -11 -1 -8 4 -8 0 0
-15 7 -11 15 -21 18 -21 3 0 3 3 0 7 -4 3 -2 12 4 20 6 7 8 13 4 13 -5 0 0 9
10 20 10 11 16 22 14 24 -2 3 -12 -5 -22 -17z"/>
<path d="M2810 3154 c0 -8 5 -12 10 -9 6 3 10 10 10 16 0 5 -4 9 -10 9 -5 0
-10 -7 -10 -16z"/>
<path d="M3476 3158 c3 -5 10 -6 15 -3 13 9 11 12 -6 12 -8 0 -12 -4 -9 -9z"/>
<path d="M2127 3143 c-4 -3 -7 -11 -7 -17 0 -6 5 -5 12 2 6 6 9 14 7 17 -3 3
-9 2 -12 -2z"/>
<path d="M2521 3103 c-15 -34 -10 -37 12 -8 9 13 13 26 8 29 -4 3 -13 -6 -20
-21z"/>
<path d="M2627 3123 c-4 -3 -7 -11 -7 -17 0 -6 5 -5 12 2 6 6 9 14 7 17 -3 3
-9 2 -12 -2z"/>
<path d="M2676 3118 c3 -4 11 -5 19 -1 21 7 19 12 -4 10 -11 0 -18 -5 -15 -9z"/>
<path d="M2820 3126 c0 -2 7 -6 15 -10 8 -3 15 -1 15 4 0 6 -7 10 -15 10 -8 0
-15 -2 -15 -4z"/>
<path d="M3455 3121 c-3 -5 -2 -12 3 -15 5 -3 9 1 9 9 0 17 -3 19 -12 6z"/>
<path d="M3802 3115 c-10 -12 -8 -16 8 -25 11 -6 25 -8 30 -5 6 3 14 -5 20
-19 5 -14 12 -26 14 -26 3 0 3 6 0 14 -3 8 4 24 15 35 15 15 17 21 7 21 -8 0
-17 -7 -20 -17 -6 -14 -10 -13 -34 10 -23 21 -29 23 -40 12z m33 -23 c-3 -3
-11 0 -18 7 -9 10 -8 11 6 5 10 -3 15 -9 12 -12z"/>
<path d="M2955 3111 c-8 -7 -6 -21 3 -21 5 0 16 6 26 13 16 12 16 13 -4 13
-11 0 -23 -2 -25 -5z"/>
<path d="M3237 3109 c7 -7 15 -10 18 -7 3 3 -2 9 -12 12 -14 6 -15 5 -6 -5z"/>
<path d="M2654 3085 c1 -22 2 -23 13 -9 12 17 9 34 -7 34 -4 0 -7 -11 -6 -25z"/>
<path d="M3420 3100 c0 -5 5 -10 11 -10 5 0 7 5 4 10 -3 6 -8 10 -11 10 -2 0
-4 -4 -4 -10z"/>
<path d="M2425 3091 c-3 -6 -2 -11 4 -11 6 0 8 -6 5 -14 -3 -8 0 -17 6 -21 7
-4 9 2 6 20 -6 33 -12 40 -21 26z"/>
<path d="M2915 3090 c-3 -6 1 -7 9 -4 18 7 21 14 7 14 -6 0 -13 -4 -16 -10z"/>
<path d="M3147 3086 c-6 -16 19 -30 28 -16 7 11 -2 30 -15 30 -4 0 -10 -6 -13
-14z"/>
<path d="M2370 3079 c0 -5 5 -7 10 -4 6 3 10 8 10 11 0 2 -4 4 -10 4 -5 0 -10
-5 -10 -11z"/>
<path d="M2460 3076 c0 -9 5 -16 10 -16 6 0 10 4 10 9 0 6 -4 13 -10 16 -5 3
-10 -1 -10 -9z"/>
<path d="M3237 3073 c6 -16 5 -17 -12 -3 -17 14 -18 13 -12 -3 4 -10 7 -20 7
-23 0 -2 7 -1 15 2 16 7 21 44 5 44 -5 0 -6 -8 -3 -17z"/>
<path d="M3700 3065 c0 -8 2 -15 4 -15 2 0 6 7 10 15 3 8 1 15 -4 15 -6 0 -10
-7 -10 -15z"/>
<path d="M2390 3050 c0 -11 2 -20 4 -20 2 0 6 9 9 20 3 11 1 20 -4 20 -5 0 -9
-9 -9 -20z"/>
<path d="M2530 3044 c0 -14 -2 -14 -16 -3 -13 11 -15 11 -13 -2 2 -7 -2 -24
-9 -36 -8 -14 -9 -24 -2 -28 9 -6 14 8 11 28 -1 4 10 13 24 19 24 11 35 38 15
38 -5 0 -10 -7 -10 -16z"/>
<path d="M3766 3047 c3 -10 9 -15 12 -12 3 3 0 11 -7 18 -10 9 -11 8 -5 -6z"/>
<path d="M2410 3040 c0 -5 5 -10 11 -10 5 0 7 5 4 10 -3 6 -8 10 -11 10 -2 0
-4 -4 -4 -10z"/>
<path d="M2441 3026 c-15 -8 -20 -16 -12 -20 6 -4 11 -2 11 3 0 6 7 11 15 11
8 0 15 5 15 10 0 12 0 12 -29 -4z"/>
<path d="M2585 3022 c-10 -7 -18 -32 -10 -32 2 0 9 9 15 20 12 22 11 24 -5 12z"/>
<path d="M2450 2982 c0 -12 19 -26 26 -19 2 2 -2 10 -11 17 -9 8 -15 8 -15 2z"/>
<path d="M1129 2978 c-7 -23 -4 -39 7 -49 8 -6 14 -21 14 -33 0 -15 6 -22 20
-22 23 0 24 5 7 31 -7 11 -12 30 -11 42 1 12 -3 20 -7 17 -5 -3 -9 0 -9 5 0 9
-18 16 -21 9z"/>
<path d="M3360 2952 c0 -6 9 -16 20 -22 12 -6 17 -17 14 -28 -5 -13 -4 -14 4
-3 5 7 16 18 23 23 11 8 11 9 -1 5 -8 -2 -25 5 -37 16 -13 11 -23 15 -23 9z"/>
<path d="M2146 2892 c-3 -5 1 -9 9 -9 8 0 12 4 9 9 -3 4 -7 8 -9 8 -2 0 -6 -4
-9 -8z"/>
<path d="M2452 2835 c-1 -12 5 -28 13 -35 12 -10 15 -9 15 4 0 9 -5 16 -11 16
-6 0 -9 7 -6 15 4 8 3 16 -1 19 -4 2 -9 -6 -10 -19z"/>
<path d="M2577 2763 c3 -8 12 -12 20 -9 8 3 17 6 19 6 2 0 4 4 4 9 0 5 -11 9
-24 9 -17 0 -23 -5 -19 -15z"/>
<path d="M2976 2741 c-3 -5 1 -11 9 -15 15 -6 29 7 18 18 -9 9 -21 8 -27 -3z"/>
<path d="M3230 2678 c15 -18 40 -18 40 -1 0 12 -3 13 -13 4 -9 -7 -18 -7 -25
-1 -9 7 -9 7 -2 -2z"/>
<path d="M3384 2511 c-61 -28 -85 -62 -98 -143 -4 -21 -22 -55 -42 -79 -40
-48 -40 -70 -1 -81 15 -5 39 -11 55 -16 62 -17 27 -109 -62 -161 -83 -49 -190
-125 -212 -150 -13 -14 -39 -67 -59 -118 -33 -81 -36 -98 -30 -145 4 -29 14
-64 22 -77 17 -27 26 -111 13 -126 -10 -13 18 -75 37 -82 7 -3 13 -18 13 -33
0 -44 9 -58 44 -70 48 -15 58 -45 33 -95 -17 -34 -18 -48 -10 -102 l9 -63 -50
-1 c-36 0 -45 -3 -31 -8 11 -5 20 -14 20 -22 0 -8 10 -15 23 -17 12 -2 22 -10
22 -18 0 -8 -4 -13 -9 -10 -12 8 -71 -14 -71 -25 0 -5 -5 -9 -11 -9 -5 0 -7 6
-3 13 4 6 4 9 -1 5 -4 -4 -14 -3 -22 3 -10 9 -19 7 -38 -5 -36 -24 -32 -42 10
-43 19 -1 32 3 29 8 -3 5 -12 9 -20 9 -8 0 -14 5 -14 10 0 6 15 4 36 -5 20 -8
45 -15 55 -15 11 0 19 -7 19 -15 0 -8 4 -15 9 -15 6 0 9 -9 8 -19 -1 -13 -8
-18 -22 -16 -30 4 -55 16 -50 24 2 4 -2 8 -10 8 -8 0 -12 -4 -9 -9 3 -4 0 -8
-5 -8 -6 0 -11 7 -11 15 0 18 -21 20 -38 3 -17 -17 -15 -23 6 -25 33 -3 52 -9
65 -23 9 -10 9 -11 0 -6 -9 5 -13 1 -13 -11 0 -15 -8 -19 -35 -20 -19 0 -32 3
-29 8 3 5 16 9 30 9 29 0 31 15 5 30 -25 13 -24 13 -49 -9 -12 -10 -19 -21
-15 -25 3 -3 1 -6 -6 -6 -8 0 -11 -7 -7 -15 3 -8 1 -15 -5 -15 -6 0 -6 -7 1
-19 5 -11 7 -26 5 -34 -3 -7 2 -20 11 -28 14 -11 18 -11 30 6 8 10 11 21 8 24
-3 3 -9 -1 -14 -9 -8 -12 -10 -12 -10 -2 0 8 9 16 20 19 11 3 17 10 13 17 -3
6 -3 8 2 4 4 -4 14 -3 22 3 18 16 16 1 -3 -18 -13 -13 -13 -17 -2 -24 10 -7
10 -9 0 -9 -7 0 -24 -12 -37 -28 -13 -15 -25 -21 -25 -14 0 8 -5 10 -12 5 -7
-4 -17 -8 -23 -9 -5 0 -16 -2 -23 -2 -7 -1 -10 -7 -7 -12 7 -12 -23 -9 -44 4
-9 6 -8 -1 5 -23 18 -31 29 -38 37 -23 2 4 2 1 1 -6 -5 -17 16 -15 38 5 10 9
18 12 18 6 0 -15 -47 -36 -61 -28 -9 6 -10 3 -4 -11 5 -10 8 -37 8 -59 -5 -97
-11 -164 -17 -174 -4 -6 5 -22 21 -36 24 -21 38 -24 99 -25 57 0 74 -4 88 -19
10 -11 24 -17 31 -15 9 4 12 -1 8 -14 -3 -14 11 -41 47 -86 l52 -67 277 2
c218 1 281 4 298 15 19 12 22 12 17 0 -9 -22 242 -19 252 3 18 42 0 76 -33 64
-7 -3 -22 2 -34 10 -24 17 -50 12 -43 -8 3 -7 -2 -15 -12 -19 -13 -5 -15 -2
-10 19 4 14 2 25 -4 25 -5 0 -10 -8 -10 -17 0 -15 -2 -15 -9 -4 -6 10 -3 20
12 32 18 14 19 17 5 15 -10 -1 -29 -13 -43 -26 -19 -18 -28 -21 -37 -12 -9 9
-9 15 1 25 10 10 11 8 6 -8 -5 -15 -4 -17 3 -6 10 14 6 41 -7 41 -4 0 -17 -13
-29 -30 -19 -25 -20 -28 -5 -23 16 6 16 5 4 -10 -7 -9 -18 -14 -25 -10 -6 3
-8 3 -4 -1 8 -10 -14 -36 -24 -29 -4 2 -5 -3 -1 -12 4 -12 1 -16 -13 -14 -10
2 -25 0 -31 -4 -9 -5 -13 -3 -13 8 0 8 7 18 16 22 8 3 13 11 10 18 -7 20 5 26
23 13 12 -9 11 -7 -2 8 -15 18 -15 23 -4 33 8 6 17 29 21 50 3 21 15 49 26 63
10 14 17 28 14 30 -3 3 2 8 11 11 8 4 15 2 15 -3 0 -4 14 -2 30 6 34 18 40 40
10 40 -11 0 -20 -6 -20 -14 0 -7 -4 -11 -10 -7 -17 11 2 34 38 46 21 6 42 15
48 20 6 5 14 7 18 4 3 -3 1 1 -4 7 -9 10 -13 10 -20 -2 -7 -12 -13 -12 -27 -4
-22 14 -79 13 -76 -1 1 -6 -15 -9 -39 -7 -27 3 -36 7 -27 13 11 6 10 9 -4 15
-9 3 -24 1 -31 -5 -10 -9 -16 -9 -21 -1 -4 6 -12 10 -18 9 -24 -3 -38 1 -33
10 3 5 -1 12 -10 15 -23 9 -34 7 -34 -5 0 -6 6 -9 12 -7 7 3 21 -5 30 -18 20
-24 25 -45 7 -27 -6 6 -18 9 -25 6 -8 -3 -21 0 -29 7 -18 15 -143 22 -151 9
-3 -5 1 -9 8 -9 10 0 9 -3 -2 -10 -17 -11 -34 9 -20 25 10 11 -50 13 -68 1 -7
-4 -16 -4 -22 -1 -5 3 -10 2 -10 -2 0 -5 -9 -9 -19 -9 -15 0 -17 3 -9 13 6 7
20 13 32 13 12 0 31 7 42 16 18 15 18 15 0 10 -10 -4 -25 -1 -32 5 -7 6 -19 7
-26 3 -21 -13 -36 -13 -48 1 -5 7 -21 10 -35 7 -20 -3 -23 -7 -14 -18 6 -7 8
-17 5 -23 -3 -5 1 -11 9 -15 8 -3 15 -16 15 -28 l-1 -23 -21 25 c-11 14 -25
24 -31 22 -6 -2 -5 4 3 12 7 9 8 16 2 16 -11 0 -4 89 9 105 5 7 1 11 -11 11
-10 0 -17 -3 -15 -6 2 -4 -2 -7 -10 -7 -10 0 -11 5 -5 17 11 20 73 25 149 10
117 -22 166 -44 138 -62 -8 -5 -6 -8 6 -8 14 0 17 5 12 20 -3 11 -2 20 3 20
14 0 35 -28 28 -38 -11 -18 54 -18 91 -1 32 16 37 24 11 20 -4 0 -5 6 -2 14 4
10 0 15 -12 15 -9 0 -14 3 -10 7 13 14 35 11 41 -5 3 -10 9 -12 13 -7 12 17
96 55 122 55 25 1 25 1 5 16 -14 11 -32 14 -58 9 -35 -5 -38 -4 -32 14 7 23
-27 46 -53 36 -14 -5 -14 -7 -2 -15 8 -6 10 -10 5 -10 -6 0 -18 9 -28 20 -9
11 -23 20 -31 20 -8 0 -18 5 -22 12 -5 7 -2 8 7 3 11 -6 11 -5 2 5 -6 7 -9 19
-6 28 5 11 3 13 -7 7 -8 -5 -11 -4 -7 2 6 10 101 8 118 -3 5 -3 9 -1 9 5 0 5
13 8 29 6 50 -6 163 42 177 74 3 9 8 30 10 46 2 17 11 59 19 95 9 36 20 85 25
110 8 40 9 39 4 -17 -4 -43 -2 -63 5 -63 6 0 11 -4 11 -10 0 -5 -6 -7 -13 -4
-8 3 -13 -4 -14 -16 -1 -12 3 -18 9 -14 5 4 3 -4 -5 -17 -9 -13 -20 -43 -26
-67 -9 -43 -9 -43 11 -25 29 26 47 65 50 106 1 20 5 34 9 31 4 -2 6 -15 4 -29
-1 -14 2 -25 6 -25 5 0 9 13 9 29 0 16 3 36 6 45 8 21 25 10 18 -12 -4 -12 -3
-13 3 -4 13 18 1 97 -15 97 -15 0 -32 24 -31 45 0 9 4 7 11 -7 14 -28 40 -39
36 -15 -2 9 -10 23 -18 30 -13 11 -12 12 6 3 12 -6 25 -22 28 -37 11 -40 16
-24 6 19 -4 20 -4 39 1 42 4 3 4 17 -1 30 -7 19 -6 27 8 34 9 6 13 11 8 11 -5
0 -3 7 4 15 6 8 9 19 5 25 -3 5 -1 10 6 10 6 0 9 -8 7 -18 -3 -10 1 -23 9 -30
11 -11 13 -8 13 15 0 15 -6 40 -14 55 -12 23 -12 27 0 32 19 7 18 36 -3 65 -9
14 -12 21 -6 18 6 -4 16 0 23 9 10 12 11 17 1 27 -10 9 -11 8 -6 -5 4 -10 3
-18 -3 -18 -6 0 -9 7 -8 15 1 9 5 14 9 13 3 -2 12 6 20 16 14 19 15 19 31 -6
13 -20 14 -33 5 -74 -14 -66 -20 -112 -13 -94 4 8 17 38 29 65 22 48 40 169
23 159 -4 -3 -8 -16 -8 -29 0 -13 -4 -26 -9 -30 -12 -7 -23 27 -16 47 4 9 -5
25 -22 40 -27 23 -45 56 -23 43 5 -3 10 1 10 9 0 8 7 22 16 30 8 9 12 20 9 26
-4 6 9 10 33 10 45 0 61 15 86 79 16 40 16 47 1 91 -16 48 -32 60 -86 65 -9 1
-22 6 -29 10 -10 6 -10 3 -2 -10 7 -14 3 -25 -21 -52 -30 -32 -30 -33 -45 -12
-12 18 -12 22 2 38 19 21 21 47 4 57 -7 5 -9 2 -5 -9 7 -18 -7 -31 -42 -42
-16 -5 -21 -4 -17 4 13 20 -33 88 -83 124 -48 35 -52 36 -103 27 -39 -6 -56
-5 -63 4 -5 7 -29 16 -52 19 -25 4 -53 18 -71 34 -16 16 -41 38 -56 51 -30 24
-23 30 8 7 23 -17 40 -20 31 -5 -3 6 -2 10 3 10 5 0 9 8 9 18 0 49 3 55 18 42
21 -17 29 9 21 66 -4 29 -2 44 5 44 18 0 0 89 -21 113 -11 11 -16 25 -13 30 4
6 0 8 -8 5 -9 -3 -24 8 -39 28 -14 18 -34 34 -45 34 -11 0 -29 2 -40 5 -11 3
-38 -3 -61 -14z m30 -127 c20 -19 20 -34 0 -62 -27 -40 -74 -22 -74 28 0 47
42 66 74 34z m183 -16 c-3 -8 -6 -5 -6 6 -1 11 2 17 5 13 3 -3 4 -12 1 -19z
m-37 -112 c0 -2 -8 -10 -17 -17 -16 -13 -17 -12 -4 4 13 16 21 21 21 13z m579
-435 c0 -10 -4 -7 -11 9 -10 23 -11 23 -16 5 -5 -25 -20 -43 -44 -56 -14 -8
-13 -3 7 27 14 20 25 46 25 58 1 21 1 20 20 -3 11 -13 20 -31 19 -40z m-154
-31 c-3 -5 -12 -10 -18 -10 -7 0 -6 4 3 10 19 12 23 12 15 0z m-88 -108 c15
-10 -16 -78 -58 -131 -19 -24 -25 -39 -20 -50 5 -9 12 -34 15 -56 7 -37 6 -39
-8 -20 -16 21 -18 18 -21 -30 -1 -16 -4 -48 -5 -70 l-3 -40 -6 50 -6 50 -19
-55 c-11 -30 -21 -50 -23 -43 -2 7 1 21 7 32 6 12 7 21 1 21 -5 0 -12 -7 -15
-16 -4 -9 -9 -14 -12 -11 -4 3 3 19 15 35 25 36 45 86 31 77 -6 -3 -10 -1 -10
6 0 8 -5 8 -17 -2 -10 -7 -3 3 16 23 32 35 32 37 10 32 -13 -2 -19 -2 -12 2
17 8 57 74 49 81 -3 3 -9 -5 -14 -17 -5 -14 -11 -19 -15 -13 -4 6 5 26 20 45
15 18 20 27 10 19 -10 -8 -19 -12 -21 -10 -8 9 46 81 67 89 28 11 30 11 44 2z
m162 -183 c-15 -9 -32 -1 -24 11 3 5 1 11 -5 15 -5 3 -10 1 -10 -6 0 -7 -3
-10 -6 -6 -3 3 -3 10 1 16 4 7 15 5 31 -6 18 -12 22 -18 13 -24z m-66 -44 c-3
-9 -8 -14 -10 -11 -3 3 -2 9 2 15 9 16 15 13 8 -4z m-241 -57 c-7 -7 -12 -8
-12 -2 0 14 12 26 19 19 2 -3 -1 -11 -7 -17z m107 -119 c1 -97 -9 -181 -19
-154 -4 11 -3 31 2 45 6 14 8 72 5 130 -3 60 -2 94 3 80 4 -14 8 -59 9 -101z
m141 51 c0 -7 -13 -7 -38 -1 -2 1 -1 5 3 11 6 10 35 2 35 -10z m-40 -122 c0
-6 -6 -5 -15 2 -8 7 -15 14 -15 16 0 2 7 1 15 -2 8 -4 15 -11 15 -16z m-100
-328 c0 -5 -2 -10 -4 -10 -3 0 -8 5 -11 10 -3 6 -1 10 4 10 6 0 11 -4 11 -10z
m-737 -91 c13 -3 8 -7 -16 -15 -31 -9 -34 -8 -32 10 3 29 4 30 18 18 6 -5 20
-11 30 -13z m98 -24 c16 -9 34 -13 39 -10 6 3 10 1 10 -5 0 -6 4 -9 9 -5 5 3
12 2 15 -3 2 -4 -9 -8 -25 -7 -16 0 -29 3 -29 6 0 8 -26 19 -60 26 -33 6 -39
13 -11 13 12 0 35 -7 52 -15z m-171 -23 c0 -13 -2 -14 -9 -4 -7 11 -9 11 -14
-1 -3 -9 2 -17 14 -20 11 -3 19 -14 19 -26 0 -12 6 -21 15 -21 8 0 15 -4 15
-9 0 -5 -11 -8 -25 -7 -13 2 -23 0 -22 -3 1 -3 -1 -7 -5 -8 -21 -7 -28 -1 -26
22 3 28 8 31 26 13 18 -18 14 -1 -5 22 l-18 20 -17 -22 -17 -23 6 23 c3 12 10
22 15 22 6 0 8 6 5 14 -7 18 -3 21 23 23 13 1 20 -4 20 -15z m65 9 c3 -5 2
-12 -3 -15 -5 -3 -9 1 -9 9 0 17 3 19 12 6z m75 -25 c0 -3 -4 -8 -10 -11 -5
-3 -10 -1 -10 4 0 6 5 11 10 11 6 0 10 -2 10 -4z m87 -20 c12 2 25 -1 28 -6 4
-6 3 -10 -2 -9 -22 4 -25 -2 -8 -15 11 -8 16 -19 12 -30 -10 -25 -50 2 -43 29
4 16 0 21 -15 22 -12 1 -17 -2 -13 -10 4 -7 3 -8 -1 -4 -5 4 -10 14 -11 22 -2
11 2 12 14 6 10 -5 27 -7 39 -5z m119 0 c16 -12 17 -17 6 -28 -7 -7 -13 -8
-12 -3 5 22 -1 29 -11 15 -9 -13 -10 -12 -5 3 3 11 0 17 -9 17 -8 0 -15 -7
-15 -16 0 -8 -5 -12 -10 -9 -8 5 -7 11 1 21 15 18 30 18 55 0z m-300 -5 c-3
-5 1 -14 9 -21 13 -11 14 -10 9 5 -5 13 -4 16 5 11 6 -4 18 -3 25 3 9 8 13 7
13 -4 0 -8 -5 -11 -10 -8 -6 4 -8 0 -5 -8 8 -21 -28 -22 -52 -2 -19 16 -18 33
1 33 6 0 8 -4 5 -9z m109 -21 c3 -6 -4 -10 -17 -10 -18 0 -20 2 -8 10 19 12
18 12 25 0z m-205 -14 c0 -2 -7 -6 -15 -10 -8 -3 -15 -1 -15 4 0 6 7 10 15 10
8 0 15 -2 15 -4z m422 -3 c-10 -4 -10 -8 -1 -19 9 -11 8 -14 -5 -14 -10 0 -14
5 -11 10 3 6 -2 10 -12 11 -16 0 -16 1 2 9 11 5 25 9 30 9 6 -1 4 -3 -3 -6z
m-392 -45 c0 -6 -7 -7 -16 -4 -9 3 -18 6 -20 6 -3 0 -3 4 1 10 7 11 35 2 35
-12z m490 -8 c-19 -13 -30 -13 -30 0 0 6 10 10 23 10 18 0 19 -2 7 -10z m-579
-89 c4 7 11 10 14 7 11 -11 -5 -28 -26 -28 -19 0 -25 11 -12 24 4 4 9 2 12 -5
2 -8 6 -8 12 2z m554 -1 c-3 -5 -16 -10 -28 -10 -18 0 -19 2 -7 10 20 13 43
13 35 0z m9 -31 c3 -3 -6 -6 -19 -7 -14 -1 -25 3 -25 8 0 10 35 9 44 -1z
m-639 -18 c3 -5 2 -12 -3 -15 -5 -3 -9 1 -9 9 0 17 3 19 12 6z m565 -95 c0 -2
-7 -7 -16 -10 -8 -3 -12 -2 -9 4 6 10 25 14 25 6z m370 -18 c0 -11 -12 -10
-30 2 -12 7 -10 9 8 7 12 0 22 -5 22 -9z m-455 -8 c3 -6 -1 -7 -9 -4 -18 7
-21 14 -7 14 6 0 13 -4 16 -10z m185 -10 c8 -5 12 -11 9 -14 -3 -3 -14 1 -25
9 -21 16 -8 20 16 5z m87 -24 c0 -8 -6 -12 -15 -9 -11 5 -11 7 0 14 7 5 13 9
14 9 0 0 1 -6 1 -14z m-47 -15 c0 -6 -4 -12 -8 -15 -5 -3 -9 1 -9 9 0 8 4 15
9 15 4 0 8 -4 8 -9z m-85 -21 c-3 -5 -12 -10 -18 -10 -7 0 -6 4 3 10 19 12 23
12 15 0z m-85 -95 c0 -12 -29 -3 -34 10 -4 13 -2 14 14 5 11 -6 20 -13 20 -15z
m-56 7 c3 -5 -1 -9 -9 -9 -8 0 -12 4 -9 9 3 4 7 8 9 8 2 0 6 -4 9 -8z m-44
-46 c0 -2 -8 -10 -17 -17 -16 -13 -17 -12 -4 4 13 16 21 21 21 13z m183 -26
c3 -11 1 -18 -4 -14 -5 3 -9 12 -9 20 0 20 7 17 13 -6z m37 0 c8 -5 11 -10 5
-10 -5 0 -17 5 -25 10 -8 5 -10 10 -5 10 6 0 17 -5 25 -10z m-215 -31 c13 -6
4 -7 -30 -3 -27 4 -52 8 -54 10 -9 8 65 2 84 -7z m526 -26 c7 -10 9 -15 5 -11
-5 4 -15 3 -23 -4 -7 -6 -16 -8 -20 -4 -3 3 -1 6 5 6 7 0 12 7 12 15 0 19 5
19 21 -2z"/>
<path d="M1840 2290 c0 -5 5 -10 10 -10 6 0 10 5 10 10 0 6 -4 10 -10 10 -5 0
-10 -4 -10 -10z"/>
<path d="M340 1922 c0 -5 -16 -13 -35 -19 -20 -6 -35 -7 -35 -2 0 5 -11 9 -25
9 -14 0 -25 -4 -25 -8 0 -5 -12 -14 -26 -20 -14 -7 -23 -8 -19 -2 3 5 -1 10
-9 10 -9 0 -16 -8 -17 -17 0 -16 -1 -16 -8 1 -7 18 -9 17 -34 -6 -15 -14 -24
-28 -20 -31 3 -4 1 -7 -5 -7 -7 0 -12 8 -13 18 0 10 -3 12 -6 5 -2 -7 -11 -13
-19 -13 -19 0 -18 -16 2 -24 8 -3 12 -11 9 -16 -4 -6 -3 -10 2 -9 23 4 24 -3
3 -21 -15 -13 -18 -20 -9 -21 8 0 3 -5 -11 -11 -14 -6 -28 -10 -32 -10 -19 4
-5 -19 16 -27 13 -5 26 -19 29 -31 4 -17 -1 -25 -26 -36 -20 -10 -24 -13 -10
-10 24 4 40 -8 23 -19 -5 -3 -10 -22 -10 -41 0 -24 -5 -34 -15 -34 -11 0 -15
-12 -15 -50 0 -51 8 -61 30 -35 7 8 24 13 39 11 24 -3 27 0 23 21 -2 12 -8 23
-12 23 -4 0 -15 12 -25 26 -14 22 -15 31 -4 76 8 28 19 53 26 55 7 3 10 9 7
14 -3 5 0 9 5 9 6 0 11 -4 11 -9 0 -5 12 -7 27 -4 16 4 40 7 56 7 32 1 31 0
11 21 -15 14 -14 15 12 10 88 -16 89 -16 80 -40 -5 -13 -10 -14 -28 -4 -13 7
-26 17 -30 23 -5 7 -8 5 -8 -5 0 -8 16 -23 35 -32 23 -11 34 -13 32 -5 -1 6 9
12 23 12 16 0 26 -6 28 -17 2 -10 -3 -17 -13 -17 -10 0 -13 5 -9 12 4 7 3 8
-4 4 -16 -10 -15 -26 1 -26 7 0 22 -7 33 -15 18 -14 18 -15 -11 -39 -16 -14
-36 -25 -42 -26 -7 0 -13 -7 -13 -15 0 -12 11 -7 40 16 22 18 42 30 46 27 3
-3 -6 -15 -20 -26 -14 -10 -22 -22 -19 -26 3 -3 -1 -6 -10 -6 -10 0 -17 -4
-17 -10 0 -5 -5 -10 -11 -10 -6 0 -25 -11 -41 -25 -34 -29 -45 -27 -29 3 8 15
8 21 -1 24 -22 8 -67 -16 -70 -36 -2 -11 -9 -21 -17 -24 -8 -3 -11 0 -8 5 3 5
0 10 -8 10 -8 0 -12 -4 -9 -8 2 -4 -10 -1 -27 8 -26 13 -33 13 -40 2 -6 -10
-3 -15 11 -17 19 -3 27 -22 14 -35 -10 -9 -46 12 -39 24 4 5 -1 9 -9 9 -21 0
-20 -20 1 -36 16 -12 16 -15 3 -23 -20 -13 -23 -58 -4 -58 8 0 12 3 9 5 -9 9
33 32 48 26 8 -3 18 0 23 7 5 9 2 10 -9 6 -10 -3 -17 -2 -17 3 0 9 22 15 43
11 25 -4 161 76 222 131 72 64 83 91 44 103 -19 6 -25 31 -20 83 1 13 -3 30
-10 38 -9 11 -7 14 10 14 12 0 21 6 21 16 0 14 1 14 16 0 17 -18 28 -21 19 -7
-3 5 12 24 32 41 21 18 32 29 24 25 -10 -6 -11 -2 -6 16 8 24 8 24 -14 5 -11
-11 -21 -14 -21 -8 0 6 -7 9 -15 6 -21 -8 -19 13 3 26 16 11 16 11 -1 6 -13
-4 -21 2 -28 22 -9 26 -49 62 -49 44z m82 -154 c-9 -9 -15 -9 -24 0 -9 9 -7
12 12 12 19 0 21 -3 12 -12z m-164 -46 c2 -7 -3 -12 -12 -12 -9 0 -16 7 -16
16 0 17 22 14 28 -4z m82 -42 c0 -13 -1 -13 -10 0 -5 8 -10 22 -10 30 0 13 1
13 10 0 5 -8 10 -22 10 -30z m-186 11 c3 -5 -3 -11 -14 -14 -20 -5 -35 5 -23
17 9 9 31 7 37 -3z m49 -231 c-7 -26 -43 -48 -43 -27 0 11 30 41 47 46 0 1 -1
-8 -4 -19z"/>
<path d="M4033 1873 c-14 -29 -8 -47 7 -23 9 13 14 50 8 50 -2 0 -9 -12 -15
-27z"/>
<path d="M373 1722 c-7 -4 -8 -13 -4 -20 6 -10 10 -10 20 2 13 16 2 29 -16 18z"/>
<path d="M407 1678 c-10 -11 -17 -22 -15 -24 3 -2 15 7 28 21 13 14 19 25 14
24 -5 0 -17 -10 -27 -21z"/>
<path d="M175 1659 c-4 -6 -5 -12 -2 -15 2 -3 7 2 10 11 7 17 1 20 -8 4z"/>
<path d="M370 1629 c0 -5 5 -7 10 -4 6 3 10 8 10 11 0 2 -4 4 -10 4 -5 0 -10
-5 -10 -11z"/>
<path d="M427 1602 c-20 -22 -22 -35 -4 -29 6 2 12 8 12 13 0 5 4 15 8 22 12
18 3 15 -16 -6z"/>
<path d="M7 1593 c-9 -9 -9 -53 1 -53 4 0 7 14 8 30 1 32 1 33 -9 23z"/>
<path d="M4732 1558 c24 -78 26 -75 -28 -44 -40 22 -45 23 -24 5 14 -12 38
-26 53 -31 22 -8 36 -28 68 -97 22 -47 39 -88 37 -91 -2 -3 -10 -5 -19 -4 -9
0 -15 -8 -15 -20 1 -19 -5 -21 -67 -22 -37 -1 -70 -4 -74 -7 -3 -3 -27 5 -54
18 -55 29 -74 32 -41 9 36 -25 142 -64 142 -52 0 6 7 5 17 -3 11 -10 14 -10 9
-1 -22 37 65 -21 104 -69 31 -39 32 -41 9 -35 -13 3 -4 -4 21 -16 29 -15 46
-31 48 -44 2 -12 14 -26 28 -32 31 -15 31 -30 -1 -38 -20 -5 -25 -12 -23 -35
1 -17 8 -29 16 -29 7 0 10 5 7 10 -3 6 -1 10 5 10 6 0 9 4 5 9 -3 5 2 17 11
26 16 15 19 14 53 -19 38 -38 37 -52 -3 -42 -18 4 -24 11 -19 22 5 14 3 15
-16 5 -12 -7 -25 -19 -28 -27 -8 -20 -26 -17 -42 7 -10 18 -15 19 -22 8 -4 -8
-14 -14 -21 -14 -7 0 -13 -11 -13 -25 0 -15 5 -24 13 -22 8 1 11 -2 7 -8 -11
-18 -33 -11 -41 13 -8 26 -36 66 -46 67 -4 0 4 -22 17 -49 29 -57 31 -71 9
-71 -8 0 -12 -5 -9 -10 3 -6 1 -10 -5 -10 -7 0 -10 6 -7 14 3 8 -1 20 -8 26
-11 9 -12 17 -4 34 11 20 11 20 -10 -2 -30 -31 -51 -17 -86 55 -16 32 -38 71
-49 87 -15 21 -18 30 -8 33 6 3 12 12 11 21 0 11 -2 13 -6 4 -4 -10 -10 -10
-30 3 -24 16 -25 16 -18 -7 7 -21 7 -22 -10 -8 -17 14 -17 14 -4 -8 8 -12 20
-20 26 -17 7 2 17 -5 23 -15 11 -21 -3 -29 -15 -10 -3 6 -11 10 -17 10 -5 0 0
-9 13 -19 14 -11 26 -15 28 -9 2 5 19 -20 37 -57 19 -37 32 -71 29 -75 -3 -4
8 -24 23 -44 68 -89 94 -152 44 -105 -15 13 -31 19 -43 16 -15 -4 -19 -2 -15
9 3 9 1 12 -4 9 -15 -9 -12 -32 5 -39 23 -9 18 -21 -10 -24 -23 -2 -25 1 -20
30 6 32 6 32 -12 11 -26 -29 -79 -21 -88 14 -7 29 -75 122 -75 103 0 -6 14
-29 30 -50 17 -22 28 -44 24 -53 -8 -23 -36 -9 -29 14 8 23 -10 26 -19 4 -4
-12 -14 -14 -43 -9 -27 5 -35 3 -28 -5 6 -6 22 -12 35 -14 29 -5 33 -26 15
-83 -7 -22 -17 -58 -24 -81 -11 -42 -20 -48 -71 -54 -8 -1 -25 2 -38 7 -22 9
-22 10 -2 27 11 9 20 12 20 7 0 -6 5 -10 11 -10 6 0 9 7 5 15 -4 13 -2 14 14
5 11 -6 20 -16 20 -22 0 -8 7 -5 17 5 9 9 13 20 9 24 -5 5 -11 2 -13 -4 -3
-10 -10 -9 -26 2 -22 14 -50 15 -63 2 -13 -12 -22 -8 -27 14 -4 16 -11 20 -26
16 -13 -3 -19 -1 -15 5 4 6 1 8 -7 6 -8 -3 -13 -12 -12 -19 2 -9 -5 -15 -17
-15 -11 0 -20 4 -20 8 0 4 5 8 10 8 6 0 10 5 10 11 0 5 -4 7 -10 4 -5 -3 -19
0 -31 8 -20 14 -59 12 -59 -3 0 -4 12 -11 27 -15 15 -3 49 -25 77 -48 27 -23
57 -42 65 -43 52 -3 52 -3 41 -24 -13 -25 8 -37 38 -21 10 5 43 19 71 31 49
19 52 19 50 3 -3 -37 1 -44 20 -38 30 9 31 -8 1 -32 l-27 -22 -34 29 c-19 16
-38 29 -42 30 -5 0 13 -18 38 -40 45 -39 62 -49 50 -31 -3 5 0 13 6 17 9 5 10
0 7 -14 -4 -12 -2 -25 4 -28 6 -4 5 -9 -3 -14 -9 -6 -3 -17 22 -39 37 -34 49
-38 49 -16 0 17 26 20 35 4 4 -5 -7 -15 -25 -22 -25 -9 -31 -17 -27 -34 5 -27
-5 -29 -27 -7 -9 8 -19 13 -24 10 -4 -2 -8 4 -8 15 0 10 4 19 9 19 5 0 4 6 -3
14 -6 8 -17 13 -24 10 -7 -3 -25 7 -42 21 -30 26 -38 28 -119 25 -52 -2 -89
-15 -80 -29 2 -5 43 -21 91 -37 89 -30 111 -50 98 -91 -4 -13 0 -11 13 5 l19
23 62 -17 c57 -16 61 -19 47 -33 -13 -13 -20 -13 -47 -3 -37 14 -49 9 -19 -8
12 -6 21 -15 21 -21 0 -6 -5 -7 -11 -4 -6 4 -9 0 -7 -11 3 -20 7 -20 -117 -13
-32 2 -62 11 -84 26 -40 27 -67 31 -32 4 l23 -18 -43 2 c-75 3 -132 16 -120
28 18 18 13 27 -13 27 -35 0 -39 12 -25 79 8 42 8 68 1 88 -9 25 -10 23 -11
-27 -1 -61 -16 -126 -32 -136 -6 -3 -17 2 -25 12 -14 18 -15 18 -9 -4 6 -20 4
-23 -12 -18 -10 3 -25 1 -33 -4 -12 -7 -11 -10 5 -15 11 -4 37 -13 58 -21 20
-8 41 -13 45 -12 17 5 102 -14 108 -24 4 -6 -1 -8 -15 -3 -20 6 -21 5 -12 -14
37 -73 37 -73 16 -65 -8 4 -15 1 -15 -4 0 -7 84 -11 255 -12 224 0 254 1 249
15 -4 8 -11 15 -18 15 -6 0 -28 14 -49 31 -20 17 -37 26 -37 21 0 -6 6 -13 13
-15 6 -3 8 -6 2 -6 -5 0 -20 8 -33 19 -19 16 -21 22 -11 38 13 21 70 52 95 52
8 0 12 -4 9 -10 -3 -5 -15 -10 -27 -10 -13 0 -18 -5 -15 -14 4 -10 -3 -16 -21
-19 -26 -4 -26 -4 4 -6 16 0 35 4 42 11 9 9 12 7 12 -10 0 -25 8 -28 24 -8 6
8 26 17 44 20 31 4 33 3 30 -22 -3 -25 -6 -27 -48 -26 -38 2 -46 -1 -46 -16 0
-10 3 -17 7 -14 4 2 16 -7 27 -21 18 -22 27 -25 87 -25 45 0 64 3 59 11 -5 8
-1 8 14 0 12 -6 73 -11 141 -11 l121 0 0 95 c0 69 -3 95 -12 95 -10 0 -10 2 0
8 10 7 12 63 10 253 -3 237 -4 244 -23 242 -11 -1 -14 0 -7 3 6 3 10 10 6 15
-3 5 1 9 10 9 12 0 14 19 14 105 0 79 -3 103 -12 96 -7 -6 -21 -1 -41 16 -31
25 -29 26 33 8 44 -13 21 4 -35 25 -58 21 -133 87 -133 115 0 8 -9 15 -19 15
-12 0 -29 15 -42 38 -13 20 -34 45 -46 55 -21 17 -23 45 -2 32 5 -4 9 -1 9 6
0 8 4 8 15 -1 8 -7 15 -23 15 -37 0 -20 2 -22 14 -11 7 7 11 20 8 28 -5 13 -3
13 14 1 31 -24 60 -56 74 -81 11 -20 10 -25 -6 -37 -16 -12 -16 -13 -1 -13 9
0 17 6 17 13 0 6 12 -1 26 -17 24 -27 24 -29 7 -42 -14 -11 -15 -13 -2 -8 9 3
32 -4 50 -15 36 -22 64 -28 54 -11 -3 6 -15 10 -26 10 -20 0 -82 76 -74 90 3
5 16 3 30 -3 25 -12 34 -27 15 -27 -5 0 -10 -4 -10 -10 0 -19 32 -10 37 10 3
11 12 20 19 20 8 0 14 10 14 24 0 26 -31 41 -49 23 -8 -8 -11 -8 -11 0 0 6 4
13 10 15 5 2 11 14 13 28 3 17 10 24 21 22 14 -2 16 8 15 70 -1 40 -4 63 -6
51 -4 -19 -8 -21 -23 -13 -11 6 -21 6 -25 1 -3 -5 3 -12 14 -16 14 -4 19 -15
19 -35 -1 -16 -6 -28 -12 -27 -6 1 -12 -10 -14 -25 -2 -19 -11 -29 -33 -37
-40 -14 -67 -2 -112 48 -40 44 -44 56 -24 64 6 3 3 6 -9 6 -15 1 -30 20 -57
74 -49 94 -60 133 -45 161 10 19 10 20 -6 6 -16 -13 -20 -12 -32 5 -8 10 -14
27 -14 37 0 10 -4 18 -9 18 -6 0 -6 -13 1 -32z m118 -288 c0 -5 -4 -10 -10
-10 -5 0 -10 5 -10 10 0 6 5 10 10 10 6 0 10 -4 10 -10z m-75 -40 c3 -5 1 -10
-4 -10 -6 0 -11 5 -11 10 0 6 2 10 4 10 3 0 8 -4 11 -10z m225 -110 c0 -5 -2
-10 -4 -10 -3 0 -8 5 -11 10 -3 6 -1 10 4 10 6 0 11 -4 11 -10z m90 -231 c0
-6 -10 -9 -22 -8 -13 2 -29 0 -35 -4 -9 -5 -11 -3 -7 6 6 16 64 21 64 6z
m-205 -59 c-3 -5 -11 -10 -16 -10 -6 0 -7 5 -4 10 3 6 11 10 16 10 6 0 7 -4 4
-10z m215 -54 c0 -9 -30 -14 -35 -6 -4 6 3 10 14 10 12 0 21 -2 21 -4z m-289
-34 c-6 -2 -9 -8 -5 -13 13 -21 -5 -7 -20 16 l-16 25 26 -12 c14 -7 21 -14 15
-16z m-286 -71 c3 -5 1 -12 -5 -16 -5 -3 -10 1 -10 9 0 18 6 21 15 7z m115
-16 c0 -8 -2 -15 -4 -15 -2 0 -6 7 -10 15 -3 8 -1 15 4 15 6 0 10 -7 10 -15z
m53 -2 c7 -7 -22 -32 -37 -33 -6 0 -1 7 10 15 18 15 18 15 0 8 -13 -4 -17 -3
-12 5 8 13 29 16 39 5z m-147 -28 c-11 -8 -14 -15 -8 -15 10 0 10 -5 1 -22 -7
-13 -10 -25 -8 -27 2 -2 -6 -8 -19 -12 -16 -6 -21 -5 -16 2 4 6 0 15 -7 20
-11 7 -9 9 8 9 15 0 20 5 16 18 -3 12 3 22 19 29 32 16 36 15 14 -2z m441 -41
c-3 -3 -12 -4 -19 -1 -8 3 -5 6 6 6 11 1 17 -2 13 -5z m-256 -54 c10 -6 19
-20 19 -32 0 -12 -3 -18 -7 -15 -3 4 -16 -4 -28 -17 l-23 -24 -13 24 c-11 21
-11 27 1 34 8 6 21 10 29 10 11 0 11 3 1 15 -15 17 -7 19 21 5z m-107 -26 c9
-8 16 -24 16 -34 0 -19 -1 -19 -34 1 -19 11 -40 27 -46 35 -10 12 -7 14 18 14
17 0 38 -7 46 -16z m46 -45 c0 -6 -4 -7 -10 -4 -5 3 -10 11 -10 16 0 6 5 7 10
4 6 -3 10 -11 10 -16z m-85 -39 c3 -5 -1 -10 -9 -10 -21 0 -20 -17 0 -28 14
-8 14 -10 1 -15 -10 -4 -17 2 -20 15 -10 35 12 64 28 38z m95 -20 c0 -5 -5
-10 -11 -10 -5 0 -7 5 -4 10 3 6 8 10 11 10 2 0 4 -4 4 -10z m-45 -51 c-4 -5
1 -9 9 -9 9 0 16 -5 16 -11 0 -21 -35 -3 -38 20 -2 15 0 21 7 16 6 -3 9 -11 6
-16z m104 -3 c10 -12 8 -13 -8 -9 -12 3 -18 9 -15 14 7 12 10 11 23 -5z m-224
-56 c-3 -5 -12 -10 -18 -10 -7 0 -6 4 3 10 19 12 23 12 15 0z m112 -55 c1 -11
-17 -8 -30 4 -4 4 0 7 10 6 10 0 19 -5 20 -10z m63 -2 c0 -7 -7 -13 -15 -13
-8 0 -15 -4 -15 -10 0 -5 -4 -10 -10 -10 -13 0 -13 23 0 36 15 15 40 13 40 -3z
m30 7 c0 -5 -4 -10 -10 -10 -5 0 -10 5 -10 10 0 6 5 10 10 10 6 0 10 -4 10
-10z m40 -35 c0 -16 -9 -19 -35 -9 -13 5 -14 8 -3 15 20 13 38 11 38 -6z
m-613 -41 c-3 -3 -12 -4 -19 -1 -8 3 -5 6 6 6 11 1 17 -2 13 -5z m603 -4 c13
0 13 -2 0 -10 -8 -5 -21 -5 -29 0 -9 5 -24 4 -36 -2 -18 -10 -19 -10 -6 6 9
11 22 15 35 12 12 -3 28 -6 36 -6z m120 -21 c0 -6 -4 -7 -10 -4 -5 3 -10 11
-10 16 0 6 5 7 10 4 6 -3 10 -11 10 -16z m-55 -28 c3 -5 2 -12 -3 -15 -5 -3
-9 1 -9 9 0 17 3 19 12 6z m-481 -26 c24 -18 19 -19 -23 -4 -23 8 -35 8 -45 0
-10 -8 -16 -8 -26 4 -11 13 -7 15 31 15 24 0 53 -7 63 -15z m143 -19 c16 5 16
4 -1 -6 -14 -10 -21 -9 -33 3 -9 9 -12 20 -8 28 6 9 10 6 16 -9 6 -15 14 -20
26 -16z m350 -43 c-14 -14 -19 -15 -29 -4 -11 11 -10 13 4 8 10 -3 19 1 22 10
4 9 9 13 13 9 4 -3 -1 -14 -10 -23z"/>
<path d="M110 1555 c0 -8 2 -15 4 -15 2 0 6 7 10 15 3 8 1 15 -4 15 -6 0 -10
-7 -10 -15z"/>
<path d="M180 1551 c0 -6 4 -13 10 -16 6 -3 7 1 4 9 -7 18 -14 21 -14 7z"/>
<path d="M110 1520 c-21 -7 -21 -8 -5 -9 11 0 27 4 35 9 18 11 5 11 -30 0z"/>
<path d="M167 1500 c-9 -11 -13 -20 -7 -20 5 0 14 9 20 20 6 11 9 20 8 20 -2
0 -11 -9 -21 -20z"/>
<path d="M4042 1430 c0 -19 2 -27 5 -17 2 9 2 25 0 35 -3 9 -5 1 -5 -18z"/>
<path d="M498 1433 c6 -2 18 -2 25 0 6 3 1 5 -13 5 -14 0 -19 -2 -12 -5z"/>
<path d="M4026 1367 c3 -10 9 -15 12 -12 3 3 0 11 -7 18 -10 9 -11 8 -5 -6z"/>
<path d="M4800 1320 c0 -5 5 -10 11 -10 5 0 7 5 4 10 -3 6 -8 10 -11 10 -2 0
-4 -4 -4 -10z"/>
<path d="M4646 1301 c-4 -7 -5 -15 -2 -18 9 -9 19 4 14 18 -4 11 -6 11 -12 0z"/>
<path d="M138 1293 c7 -3 16 -2 19 1 4 3 -2 6 -13 5 -11 0 -14 -3 -6 -6z"/>
<path d="M4760 1287 c14 -6 28 -16 32 -22 5 -6 8 -5 8 3 0 7 -12 17 -26 22
-35 14 -45 11 -14 -3z"/>
<path d="M12 1279 c12 -7 24 -7 36 0 14 9 11 10 -18 10 -29 0 -32 -1 -18 -10z"/>
<path d="M4028 1205 c-8 -30 -12 -55 -8 -55 4 0 14 25 22 55 8 30 12 55 8 55
-4 0 -14 -25 -22 -55z"/>
<path d="M0 1229 c0 -4 18 -9 39 -11 22 -2 37 0 35 3 -5 9 -74 17 -74 8z"/>
<path d="M98 1223 c7 -3 16 -2 19 1 4 3 -2 6 -13 5 -11 0 -14 -3 -6 -6z"/>
<path d="M4632 1213 c-12 -2 -20 -9 -16 -14 3 -6 -2 -16 -11 -23 -13 -10 -15
-17 -8 -30 10 -17 10 -17 17 0 5 14 9 15 15 5 6 -9 14 -4 32 20 12 18 18 29
11 25 -7 -4 -12 -3 -12 3 0 5 6 12 13 14 15 7 -8 6 -41 0z"/>
<path d="M5037 1205 c-4 -8 -2 -17 3 -20 6 -4 10 3 10 14 0 25 -6 27 -13 6z"/>
<path d="M4000 1120 c-15 -28 -25 -120 -14 -120 9 0 14 24 17 72 1 9 4 15 8
13 3 -3 6 9 5 25 -1 36 -2 36 -16 10z"/>
<path d="M4650 1126 c0 -9 5 -16 10 -16 6 0 10 4 10 9 0 6 -4 13 -10 16 -5 3
-10 -1 -10 -9z"/>
<path d="M6 1093 c-8 -59 -5 -71 16 -65 10 2 18 8 18 13 0 5 -8 6 -17 3 -10
-4 -5 5 12 19 26 22 27 26 9 22 -17 -3 -21 1 -18 21 4 40 -14 27 -20 -13z"/>
<path d="M4585 1110 c-16 -7 -17 -9 -3 -9 9 -1 20 4 23 9 7 11 7 11 -20 0z"/>
<path d="M4756 1092 c-2 -4 7 -13 21 -19 20 -10 23 -9 13 2 -8 10 -8 14 2 18
7 3 3 6 -9 6 -12 1 -24 -2 -27 -7z"/>
<path d="M4533 1055 c0 -8 7 -15 15 -15 12 0 12 3 2 15 -7 8 -13 15 -15 15 -1
0 -2 -7 -2 -15z"/>
<path d="M4888 1043 c7 -3 16 -2 19 1 4 3 -2 6 -13 5 -11 0 -14 -3 -6 -6z"/>
<path d="M78 1028 c-9 -5 -4 -8 15 -8 15 0 27 4 27 8 0 11 -25 11 -42 0z"/>
<path d="M380 1036 c0 -8 61 -12 66 -4 3 4 -11 8 -30 8 -20 0 -36 -2 -36 -4z"/>
<path d="M3955 1020 c-3 -11 -4 -29 0 -40 5 -16 9 -17 20 -7 13 12 10 31 -4
22 -5 -2 -6 7 -3 20 5 30 -4 33 -13 5z"/>
<path d="M4850 1025 c0 -8 -4 -15 -8 -15 -5 0 -7 -13 -4 -30 2 -16 8 -30 13
-30 5 0 6 7 3 15 -8 21 13 19 25 -2 16 -27 12 -2 -3 26 -8 14 -12 31 -9 38 3
7 0 13 -6 13 -6 0 -11 -7 -11 -15z"/>
<path d="M228 1023 c6 -2 18 -2 25 0 6 3 1 5 -13 5 -14 0 -19 -2 -12 -5z"/>
<path d="M843 1013 c9 -2 25 -2 35 0 9 3 1 5 -18 5 -19 0 -27 -2 -17 -5z"/>
<path d="M55 1000 c-3 -5 -3 -11 2 -11 13 -2 28 -6 33 -9 3 -1 27 -3 54 -5 54
-2 41 12 -17 18 -20 2 -40 7 -44 10 -9 10 -21 9 -28 -3z"/>
<path d="M633 993 c9 -2 23 -2 30 0 6 3 -1 5 -18 5 -16 0 -22 -2 -12 -5z"/>
<path d="M210 970 c0 -4 23 -12 50 -17 39 -8 50 -7 50 3 0 7 -8 11 -17 10 -10
-2 -32 0 -50 5 -18 4 -33 3 -33 -1z"/>
<path d="M490 976 c0 -10 75 -25 137 -28 35 -2 65 -8 67 -14 3 -7 16 -9 32 -6
28 5 28 5 5 14 -29 10 -60 15 -141 23 -36 3 -73 8 -82 11 -10 3 -18 3 -18 0z"/>
<path d="M1133 973 c9 -2 23 -2 30 0 6 3 -1 5 -18 5 -16 0 -22 -2 -12 -5z"/>
<path d="M2970 969 c0 -5 5 -7 10 -4 6 3 10 8 10 11 0 2 -4 4 -10 4 -5 0 -10
-5 -10 -11z"/>
<path d="M51 944 c0 -11 3 -14 6 -6 3 7 2 16 -1 19 -3 4 -6 -2 -5 -13z"/>
<path d="M970 956 c0 -2 9 -6 20 -9 11 -3 20 -1 20 4 0 5 -9 9 -20 9 -11 0
-20 -2 -20 -4z"/>
<path d="M1046 947 c3 -10 27 -14 81 -15 93 -3 94 4 2 10 -36 3 -71 8 -77 12
-7 4 -10 2 -6 -7z"/>
<path d="M1395 950 c-3 -6 1 -7 9 -4 18 7 21 14 7 14 -6 0 -13 -4 -16 -10z"/>
<path d="M72 941 c2 -7 7 -12 11 -12 12 1 9 15 -3 20 -7 2 -11 -2 -8 -8z"/>
<path d="M117 944 c-15 -15 -5 -22 33 -26 22 -2 40 0 40 4 0 5 -10 8 -23 8
-13 0 -28 5 -33 10 -6 6 -13 7 -17 4z"/>
<path d="M471 941 c-1 -7 -7 -11 -16 -7 -8 3 -15 1 -15 -5 0 -11 57 -5 68 7 4
4 -1 4 -10 1 -9 -3 -19 -1 -22 6 -3 8 -5 8 -5 -2z"/>
<path d="M220 916 c8 -8 39 -17 69 -19 29 -3 58 -10 63 -15 8 -8 95 1 105 12
5 5 -105 18 -169 20 -32 0 -58 4 -58 8 0 5 -5 8 -12 8 -8 0 -8 -4 2 -14z"/>
<path d="M850 920 c-24 -8 -23 -8 8 -9 20 -1 31 3 27 9 -3 6 -7 10 -8 9 -1 -1
-13 -5 -27 -9z"/>
<path d="M1270 920 c-18 -11 10 -18 40 -10 l25 6 -27 6 c-15 3 -32 2 -38 -2z"/>
<path d="M1770 920 c36 -11 50 -11 50 0 0 6 -17 10 -37 9 -34 -1 -35 -2 -13
-9z"/>
<path d="M2630 921 c0 -21 13 -41 27 -41 13 0 13 2 2 17 -10 11 -10 14 -1 9 6
-4 12 -5 12 -2 0 3 -9 10 -20 16 -12 6 -20 7 -20 1z"/>
<path d="M2788 906 c-16 -22 -16 -25 -1 -30 9 -4 18 -4 21 -1 3 3 0 5 -6 5 -7
0 -12 5 -12 11 0 5 5 7 10 4 6 -3 10 3 10 14 0 26 -1 26 -22 -3z"/>
<path d="M560 910 c-19 -6 -11 -8 33 -9 36 -1 56 3 52 9 -7 12 -49 12 -85 0z"/>
<path d="M905 910 c-3 -6 1 -7 9 -4 18 7 21 14 7 14 -6 0 -13 -4 -16 -10z"/>
<path d="M1372 904 c9 -9 21 -15 27 -13 6 2 -2 10 -17 17 -25 11 -25 11 -10
-4z"/>
<path d="M1575 910 c11 -5 27 -9 35 -9 9 0 8 4 -5 9 -11 5 -27 9 -35 9 -9 0
-8 -4 5 -9z"/>
<path d="M990 900 c0 -12 17 -12 45 0 17 7 15 9 -12 9 -18 1 -33 -3 -33 -9z"/>
<path d="M2208 903 c7 -3 16 -2 19 1 4 3 -2 6 -13 5 -11 0 -14 -3 -6 -6z"/>
<path d="M498 893 c6 -2 18 -2 25 0 6 3 1 5 -13 5 -14 0 -19 -2 -12 -5z"/>
<path d="M695 889 c22 -5 51 -11 65 -14 14 -2 52 -9 85 -15 60 -12 144 -20
220 -21 35 -1 37 -2 15 -9 -30 -10 -18 -11 75 -12 65 0 67 -1 25 -8 -36 -5
-25 -7 50 -7 69 0 83 1 50 6 -25 4 -54 12 -65 17 -11 6 -38 10 -60 8 -22 -2
-42 2 -47 9 -6 10 -77 19 -145 18 -13 -1 -23 3 -23 8 0 11 -60 20 -185 25 -78
4 -91 3 -60 -5z m230 -29 c3 -5 1 -10 -4 -10 -6 0 -11 5 -11 10 0 6 2 10 4 10
3 0 8 -4 11 -10z"/>
<path d="M1065 890 c-15 -7 -10 -9 23 -8 23 1 42 6 42 10 0 10 -39 9 -65 -2z"/>
<path d="M1425 890 c3 -5 11 -10 16 -10 6 0 7 5 4 10 -3 6 -11 10 -16 10 -6 0
-7 -4 -4 -10z"/>
<path d="M1718 893 c7 -3 16 -2 19 1 4 3 -2 6 -13 5 -11 0 -14 -3 -6 -6z"/>
<path d="M2684 893 c3 -4 17 -8 29 -10 17 -2 19 -1 7 7 -17 11 -47 14 -36 3z"/>
<path d="M2875 890 c-4 -6 3 -10 14 -10 25 0 27 6 6 13 -8 4 -17 2 -20 -3z"/>
<path d="M2988 893 c7 -3 16 -2 19 1 4 3 -2 6 -13 5 -11 0 -14 -3 -6 -6z"/>
<path d="M1178 883 c6 -2 18 -2 25 0 6 3 1 5 -13 5 -14 0 -19 -2 -12 -5z"/>
<path d="M3907 883 c-4 -3 -7 -12 -7 -19 0 -10 7 -11 32 -2 28 10 30 12 12 19
-25 10 -29 10 -37 2z"/>
<path d="M238 873 c7 -3 16 -2 19 1 4 3 -2 6 -13 5 -11 0 -14 -3 -6 -6z"/>
<path d="M430 871 c0 -6 19 -11 43 -11 23 0 92 -10 152 -22 61 -11 127 -21
148 -22 20 0 37 -4 37 -8 0 -4 7 -5 15 -2 8 4 23 0 32 -7 12 -10 15 -10 9 -1
-4 6 -3 12 3 12 5 0 18 3 28 6 16 6 16 5 -2 -9 -19 -16 -18 -16 25 -19 25 -1
61 -1 80 0 26 1 31 -1 20 -8 -12 -8 -12 -10 5 -10 50 -1 170 -21 211 -35 26
-9 59 -12 82 -9 69 11 59 21 -28 29 -36 3 -78 10 -95 14 -16 5 -56 12 -89 14
-32 3 -63 10 -69 16 -6 6 -35 11 -63 11 -29 0 -56 5 -59 10 -3 6 -25 10 -48
11 -23 0 -75 6 -114 13 -40 7 -88 13 -107 12 -19 -1 -32 2 -30 5 5 9 -33 15
-115 18 -45 1 -71 -2 -71 -8z"/>
<path d="M1240 870 c0 -5 5 -10 11 -10 5 0 7 5 4 10 -3 6 -8 10 -11 10 -2 0
-4 -4 -4 -10z"/>
<path d="M1738 873 c6 -2 18 -2 25 0 6 3 1 5 -13 5 -14 0 -19 -2 -12 -5z"/>
<path d="M1800 869 c-18 -5 -8 -7 34 -8 33 -1 57 1 55 3 -9 9 -65 12 -89 5z"/>
<path d="M2343 873 c9 -2 23 -2 30 0 6 3 -1 5 -18 5 -16 0 -22 -2 -12 -5z"/>
<path d="M15 860 c-3 -5 -1 -10 5 -10 6 0 9 -4 6 -9 -6 -10 22 -26 54 -30 5 0
18 -10 28 -22 17 -18 20 -18 26 -4 14 36 -99 107 -119 75z"/>
<path d="M2680 861 c0 -6 -9 -11 -20 -11 -15 0 -20 -7 -20 -26 0 -14 -4 -23
-9 -19 -6 3 -8 -3 -6 -14 2 -11 -2 -42 -10 -70 -11 -42 -11 -49 1 -44 8 3 11
10 7 17 -4 6 1 5 10 -3 9 -7 15 -17 12 -21 -6 -10 13 -26 71 -55 57 -29 59
-29 48 -12 -5 7 -1 4 8 -6 19 -20 55 -16 42 4 -4 8 -9 7 -15 -2 -6 -10 -8 -7
-6 9 2 25 12 29 21 7 6 -17 15 -19 36 -5 12 7 12 12 -4 28 -10 12 -13 23 -8
26 6 3 13 0 15 -6 4 -8 6 -9 6 -2 1 6 -7 18 -16 25 -14 12 -16 12 -8 0 6 -11
2 -13 -18 -9 -15 3 -24 2 -22 -3 3 -4 1 -11 -5 -14 -6 -4 -10 -3 -9 2 4 21 -2
25 -14 8 -11 -14 -16 -15 -22 -5 -5 9 -4 11 3 6 11 -7 17 6 13 27 -1 5 8 11
19 14 11 3 20 9 20 14 0 5 -7 6 -16 2 -10 -4 -17 1 -21 16 -3 11 -10 21 -15
21 -5 0 -6 5 -3 10 3 6 -4 10 -17 10 -17 0 -19 -3 -9 -9 7 -5 10 -14 7 -20
-15 -23 -25 1 -19 47 4 37 2 51 -11 61 -11 9 -16 10 -16 2z m67 -133 c-3 -8
-6 -5 -6 6 -1 11 2 17 5 13 3 -3 4 -12 1 -19z m-47 2 c0 -5 -5 -10 -11 -10 -5
0 -7 5 -4 10 3 6 8 10 11 10 2 0 4 -4 4 -10z"/>
<path d="M2726 862 c-2 -4 0 -14 6 -22 8 -12 9 -12 5 2 -3 9 -1 19 6 22 9 3 9
5 0 5 -6 1 -14 -3 -17 -7z"/>
<path d="M250 850 c0 -5 19 -10 43 -9 36 1 38 2 17 9 -36 12 -60 12 -60 0z"/>
<path d="M363 852 c-13 -2 -23 -8 -23 -13 0 -15 46 -28 118 -35 36 -3 71 -9
77 -14 16 -13 163 -16 176 -3 6 6 5 10 -3 10 -41 1 -124 16 -132 24 -6 5 -36
9 -68 9 -32 0 -73 6 -91 13 -18 7 -42 11 -54 9z"/>
<path d="M1270 848 c0 -10 16 -9 50 2 22 7 20 8 -12 7 -21 -1 -38 -5 -38 -9z"/>
<path d="M1354 852 c3 -6 -2 -13 -11 -15 -10 -3 7 -6 37 -7 76 -4 78 -4 86
-13 4 -4 28 -7 52 -7 55 0 52 7 -5 14 -23 2 -50 9 -60 14 -10 4 -29 7 -43 6
-14 -1 -33 3 -44 8 -12 7 -16 7 -12 0z"/>
<path d="M1625 846 c23 -18 120 -22 130 -5 5 7 -11 9 -47 8 -29 -1 -64 1 -78
5 -24 8 -24 8 -5 -8z"/>
<path d="M1935 853 c22 -3 44 -8 50 -12 5 -4 21 -5 35 -1 21 5 17 7 -24 13
-27 4 -61 6 -75 5 -15 -1 -9 -3 14 -5z"/>
<path d="M2178 853 c7 -3 16 -2 19 1 4 3 -2 6 -13 5 -11 0 -14 -3 -6 -6z"/>
<path d="M2210 850 c0 -5 10 -10 23 -10 18 0 19 2 7 10 -19 13 -30 13 -30 0z"/>
<path d="M1228 843 c7 -3 16 -2 19 1 4 3 -2 6 -13 5 -11 0 -14 -3 -6 -6z"/>
<path d="M2578 843 c6 -2 18 -2 25 0 6 3 1 5 -13 5 -14 0 -19 -2 -12 -5z"/>
<path d="M2759 833 c-13 -16 -12 -17 4 -4 9 7 17 15 17 17 0 8 -8 3 -21 -13z"/>
<path d="M2780 824 c-16 -18 -22 -64 -10 -64 12 0 18 12 25 48 6 36 3 39 -15
16z"/>
<path d="M2868 833 c7 -3 16 -2 19 1 4 3 -2 6 -13 5 -11 0 -14 -3 -6 -6z"/>
<path d="M210 820 c0 -5 5 -10 11 -10 5 0 7 5 4 10 -3 6 -8 10 -11 10 -2 0 -4
-4 -4 -10z"/>
<path d="M2090 820 c8 -5 20 -10 25 -10 6 0 3 5 -5 10 -8 5 -19 10 -25 10 -5
0 -3 -5 5 -10z"/>
<path d="M2990 820 c20 -13 43 -13 35 0 -3 6 -16 10 -28 10 -18 0 -19 -2 -7
-10z"/>
<path d="M1578 813 c6 -2 18 -2 25 0 6 3 1 5 -13 5 -14 0 -19 -2 -12 -5z"/>
<path d="M2720 809 c0 -5 5 -7 10 -4 6 3 10 8 10 11 0 2 -4 4 -10 4 -5 0 -10
-5 -10 -11z"/>
<path d="M303 786 c21 -20 39 -26 72 -26 24 0 46 -4 49 -9 7 -10 71 -22 138
-24 25 -1 44 -5 41 -9 -2 -5 -11 -8 -19 -8 -8 0 -33 -9 -55 -21 -22 -11 -57
-21 -77 -23 -23 -2 -36 -7 -34 -15 2 -9 -3 -9 -19 0 -15 8 -19 8 -15 0 4 -6 2
-11 -4 -11 -6 0 -9 -4 -6 -9 3 -4 -6 -7 -19 -5 -31 3 -65 -6 -65 -17 0 -4 10
-13 21 -20 19 -10 21 -9 17 9 -5 16 -2 18 16 14 11 -3 15 -7 8 -10 -17 -5 -15
-19 4 -26 8 -3 12 -2 9 4 -3 5 3 8 14 7 11 0 17 -5 15 -9 -3 -4 -1 -8 5 -8 5
0 13 5 16 10 3 6 14 7 23 2 21 -9 43 -9 60 1 6 5 30 9 53 9 25 0 43 6 46 14 3
8 10 14 15 14 6 0 8 -7 5 -14 -4 -10 -1 -13 8 -9 8 3 12 9 9 14 -3 5 -1 9 4 9
12 0 24 -29 17 -40 -2 -4 -17 -5 -32 -3 -22 4 -25 2 -13 -6 8 -6 33 -10 55 -9
23 1 45 -1 50 -4 6 -2 24 -4 40 -3 31 2 58 -11 50 -25 -6 -9 28 0 81 21 28 11
36 10 59 -5 15 -10 24 -12 20 -5 -5 8 -4 10 3 5 7 -4 22 -9 34 -11 41 -8 37
-20 -7 -19 -24 0 -42 -2 -40 -6 2 -3 -5 -6 -15 -6 -11 0 -16 5 -12 15 3 9 1
12 -6 7 -7 -4 -12 -2 -12 3 0 6 -7 11 -15 11 -9 0 -15 -9 -15 -22 -1 -22 -1
-22 -14 -5 -11 14 -16 15 -22 5 -14 -21 -13 -40 0 -35 7 3 19 1 27 -5 11 -8
10 -9 -3 -4 -10 3 -18 1 -18 -4 0 -10 20 -14 50 -11 10 1 8 -5 -7 -18 -23 -19
-32 -38 -14 -26 5 3 12 1 16 -4 6 -11 -17 -8 -58 8 -34 13 -37 13 -37 3 0 -15
66 -36 118 -37 29 -1 57 -6 63 -12 11 -11 69 -5 69 8 0 5 -6 6 -14 3 -8 -3
-17 0 -21 6 -3 6 -1 9 6 8 6 -2 14 3 16 10 3 7 -4 12 -16 12 -11 0 -23 5 -27
11 -10 18 44 2 72 -20 15 -11 33 -16 49 -13 34 6 24 15 -17 14 -23 -1 -28 2
-18 8 8 6 11 10 5 11 -37 5 -75 21 -75 31 0 5 -10 18 -22 28 -23 18 -23 18 24
15 26 -2 50 0 53 6 4 5 1 9 -6 9 -7 0 -9 3 -6 6 4 4 14 1 22 -6 18 -15 66 1
64 22 0 10 -2 10 -6 1 -7 -19 -33 -16 -33 5 0 13 -2 14 -9 4 -7 -11 -9 -10
-15 3 -4 11 -12 14 -25 10 -11 -3 -22 -1 -26 5 -3 5 -11 10 -16 10 -6 0 -8 -4
-5 -8 2 -4 -21 -5 -52 -1 -31 3 -65 2 -76 -3 -13 -7 -16 -7 -11 1 4 8 -3 10
-23 6 -21 -3 -34 1 -47 15 -10 11 -29 20 -42 20 -14 0 -21 4 -18 10 3 6 -2 10
-11 10 -10 0 -14 3 -11 7 4 3 17 1 30 -4 39 -20 71 -23 112 -11 22 7 43 16 46
20 3 4 20 10 37 12 38 4 55 16 24 16 -12 0 -22 5 -22 10 0 10 84 5 101 -6 4
-2 10 0 14 6 3 5 -1 10 -9 10 -10 0 -13 6 -10 15 4 8 11 12 18 9 6 -4 4 0 -4
9 -33 35 -140 31 -140 -5 0 -15 -5 -18 -20 -13 -12 4 -20 2 -20 -5 0 -8 10
-10 25 -8 32 7 42 -8 16 -21 -12 -7 -21 -7 -23 -1 -2 5 -15 11 -30 12 -15 1
-24 6 -22 10 5 7 -10 12 -29 9 -4 -1 -13 10 -19 24 -6 14 -18 25 -27 26 -12 0
-11 3 4 8 11 5 28 7 38 5 10 -2 15 1 11 7 -3 6 -17 9 -30 6 -13 -2 -24 -1 -24
3 0 4 -20 3 -45 -3 -28 -7 -41 -13 -33 -18 8 -5 3 -11 -17 -19 -33 -13 -60 -6
-49 12 5 9 3 9 -9 -1 -13 -10 -17 -10 -17 -1 0 7 -6 10 -14 7 -8 -3 -45 1 -83
9 -37 8 -88 14 -113 15 -34 0 -40 2 -25 9 18 8 18 9 -5 9 -14 1 -36 4 -50 7
l-25 6 28 -26z m460 -87 c-9 -15 -22 -25 -30 -22 -18 7 -16 12 10 24 l22 10
-22 -5 c-13 -2 -23 1 -23 7 0 7 13 12 30 13 l29 1 -16 -28z m-17 -126 c-2 -2
-21 -1 -42 3 l-39 8 30 6 c27 6 62 -6 51 -17z m212 -100 c-10 -2 -26 -2 -35 0
-10 3 -2 5 17 5 19 0 27 -2 18 -5z m12 -48 c-7 -8 -16 -12 -21 -9 -13 8 -1 24
18 24 13 0 13 -3 3 -15z"/>
<path d="M1825 800 c28 -12 73 -12 80 0 4 6 -14 10 -47 9 -39 0 -48 -3 -33 -9z"/>
<path d="M1595 790 c22 -10 122 -13 113 -4 -3 3 -35 7 -69 9 -42 2 -57 0 -44
-5z"/>
<path d="M2107 793 c18 -2 50 -2 70 0 21 2 7 4 -32 4 -38 0 -55 -2 -38 -4z"/>
<path d="M2425 790 c-61 -6 -64 -7 -25 -9 58 -4 83 -1 95 10 5 5 7 8 5 7 -3
-1 -36 -4 -75 -8z"/>
<path d="M4700 792 c0 -12 19 -26 26 -19 2 2 -2 10 -11 17 -9 8 -15 8 -15 2z"/>
<path d="M1309 781 c22 -15 158 -24 178 -12 10 6 16 11 13 11 -39 8 -202 8
-191 1z"/>
<path d="M1940 781 c64 -16 113 -20 101 -8 -6 6 -39 12 -73 14 -53 2 -57 1
-28 -6z"/>
<path d="M144 769 c-3 -5 -2 -9 3 -8 4 1 10 0 13 -1 18 -6 39 -7 35 0 -8 12
-44 19 -51 9z"/>
<path d="M1735 770 c2 -4 32 -8 67 -9 34 -1 59 1 56 4 -9 9 -128 14 -123 5z"/>
<path d="M2072 758 c7 -4 40 -7 73 -7 73 1 62 6 -23 11 -34 3 -57 1 -50 -4z"/>
<path d="M2218 753 c6 -2 18 -2 25 0 6 3 1 5 -13 5 -14 0 -19 -2 -12 -5z"/>
<path d="M2308 753 c7 -3 16 -2 19 1 4 3 -2 6 -13 5 -11 0 -14 -3 -6 -6z"/>
<path d="M1435 740 c-3 -5 -1 -10 4 -10 6 0 11 5 11 10 0 6 -2 10 -4 10 -3 0
-8 -4 -11 -10z"/>
<path d="M1955 741 c3 -5 -3 -12 -12 -14 -10 -3 -6 -4 10 -4 28 1 39 27 11 27
-8 0 -13 -4 -9 -9z"/>
<path d="M2000 740 c-12 -7 -12 -12 -2 -22 9 -9 12 -9 12 1 0 7 6 11 14 8 10
-4 13 -1 9 9 -6 16 -12 17 -33 4z"/>
<path d="M2398 743 c7 -3 16 -2 19 1 4 3 -2 6 -13 5 -11 0 -14 -3 -6 -6z"/>
<path d="M4200 741 c0 -10 24 -21 47 -21 17 0 15 7 -2 10 -5 1 -18 6 -27 11
-11 6 -18 6 -18 0z"/>
<path d="M4270 730 c0 -6 7 -10 15 -10 8 0 15 2 15 4 0 2 -7 6 -15 10 -8 3
-15 1 -15 -4z"/>
<path d="M806 722 c-6 -10 40 -10 50 1 4 4 -4 7 -19 7 -14 0 -28 -4 -31 -8z"/>
<path d="M2098 723 c7 -3 16 -2 19 1 4 3 -2 6 -13 5 -11 0 -14 -3 -6 -6z"/>
<path d="M2576 721 c-3 -5 1 -11 9 -14 9 -4 12 -1 8 9 -6 16 -10 17 -17 5z"/>
<path d="M430 716 c0 -2 7 -7 16 -10 8 -3 12 -2 9 4 -6 10 -25 14 -25 6z"/>
<path d="M1178 708 c-9 -5 -4 -8 15 -8 15 0 27 4 27 8 0 11 -25 11 -42 0z"/>
<path d="M1680 711 c0 -5 -10 -7 -22 -4 l-23 5 22 -16 c16 -12 28 -14 40 -8
10 5 25 7 33 4 13 -5 13 -3 1 11 -14 18 -51 23 -51 8z"/>
<path d="M4340 716 c0 -2 7 -7 16 -10 8 -3 12 -2 9 4 -6 10 -25 14 -25 6z"/>
<path d="M2170 700 c0 -6 12 -10 27 -10 29 0 24 12 -7 17 -11 2 -20 -2 -20 -7z"/>
<path d="M2230 699 c0 -5 5 -7 10 -4 6 3 10 8 10 11 0 2 -4 4 -10 4 -5 0 -10
-5 -10 -11z"/>
<path d="M2260 701 c0 -5 7 -11 14 -14 10 -4 13 -1 9 9 -6 15 -23 19 -23 5z"/>
<path d="M2368 703 c6 -2 18 -2 25 0 6 3 1 5 -13 5 -14 0 -19 -2 -12 -5z"/>
<path d="M2428 703 c12 -2 32 -2 45 0 12 2 2 4 -23 4 -25 0 -35 -2 -22 -4z"/>
<path d="M3553 690 c-1 -11 2 -20 7 -20 4 0 7 7 6 15 -3 23 -12 26 -13 5z"/>
<path d="M2100 681 c0 -4 6 -8 13 -8 6 0 32 -3 57 -7 28 -4 37 -3 25 2 -30 13
-95 22 -95 13z"/>
<path d="M2480 678 c0 -11 65 -21 90 -13 12 4 19 9 16 12 -9 9 -106 10 -106 1z"/>
<path d="M4010 681 c0 -5 -11 -8 -25 -5 -20 3 -25 0 -25 -16 0 -15 -6 -20 -27
-20 -27 1 -27 1 -9 15 30 23 11 30 -21 7 -20 -14 -34 -17 -50 -11 -13 5 -23 6
-23 2 0 -3 -7 0 -15 7 -12 10 -15 10 -15 0 0 -10 -3 -10 -14 -1 -11 9 -16 9
-21 1 -4 -7 -16 -10 -26 -7 -11 3 -19 0 -19 -6 0 -7 -7 -3 -15 7 -17 22 -20
14 -5 -14 20 -38 130 -81 130 -50 0 13 63 29 76 19 6 -5 28 -8 50 -7 21 1 51
-2 67 -6 24 -7 27 -6 27 17 0 14 10 32 25 43 22 17 23 19 7 26 -26 10 -72 9
-72 -1z"/>
<path d="M121 664 c0 -11 3 -14 6 -6 3 7 2 16 -1 19 -3 4 -6 -2 -5 -13z"/>
<path d="M230 671 c16 -5 24 -13 22 -24 -4 -24 21 -21 36 4 12 19 11 20 -7 14
-10 -3 -22 -1 -26 5 -3 5 -16 10 -28 9 -20 -1 -20 -2 3 -8z"/>
<path d="M1086 665 c13 -9 24 -10 36 -4 24 13 23 14 -18 16 -33 2 -34 0 -18
-12z"/>
<path d="M353 655 c0 -8 4 -15 9 -15 4 0 8 7 8 15 0 8 -4 15 -8 15 -5 0 -9 -7
-9 -15z"/>
<path d="M1576 663 c-22 -4 -26 -7 -15 -14 11 -7 9 -9 -8 -9 -13 0 -23 -5 -23
-11 0 -5 5 -7 12 -3 7 4 8 3 4 -4 -4 -6 -13 -9 -21 -5 -8 3 -15 1 -15 -5 0
-14 28 -23 35 -12 4 6 18 4 35 -5 38 -20 49 -19 24 1 -17 15 -17 15 8 0 15 -9
39 -16 53 -16 14 0 25 -4 25 -10 0 -5 28 -8 65 -6 36 2 68 -1 71 -6 4 -6 9 -6
14 2 4 7 42 14 91 17 91 6 134 23 57 23 -26 0 -50 5 -53 10 -14 23 -86 50
-127 49 -24 -1 -79 0 -123 3 -44 3 -93 3 -109 1z m357 -63 c9 -9 1 -11 -38 -7
-64 7 -64 7 -40 16 26 11 64 7 78 -9z"/>
<path d="M2015 661 c-11 -5 -25 -6 -31 -4 -7 2 -15 -1 -20 -8 -5 -8 -2 -11 7
-7 13 5 42 -15 34 -24 -2 -2 5 -4 15 -5 27 -2 25 16 -2 27 -15 5 -17 9 -7 9 9
1 19 -2 23 -6 13 -13 60 -10 74 4 11 11 9 13 -10 13 -13 0 -32 2 -43 5 -11 2
-29 0 -40 -4z"/>
<path d="M4107 663 c-4 -6 0 -14 9 -17 25 -10 46 -7 39 5 -4 6 -13 8 -20 5 -8
-3 -15 0 -18 7 -2 8 -5 8 -10 0z"/>
<path d="M1240 613 c0 -10 4 -14 8 -8 4 6 11 13 16 18 5 4 2 7 -7 7 -10 0 -17
-8 -17 -17z"/>
<path d="M2290 626 c0 -2 11 -6 25 -8 13 -3 22 -1 19 3 -5 9 -44 13 -44 5z"/>
<path d="M4072 615 c5 -29 58 -30 58 -2 0 20 0 21 -14 1 -15 -19 -15 -19 -31
1 l-16 20 3 -20z"/>
<path d="M808 593 c6 -2 18 -2 25 0 6 3 1 5 -13 5 -14 0 -19 -2 -12 -5z"/>
<path d="M1320 596 c0 -2 7 -6 15 -10 8 -3 15 -1 15 4 0 6 -7 10 -15 10 -8 0
-15 -2 -15 -4z"/>
<path d="M2634 585 c11 -8 34 -15 50 -15 30 1 30 1 -9 15 -51 19 -65 18 -41 0z"/>
<path d="M3716 585 c4 -8 11 -15 16 -15 6 0 5 6 -2 15 -7 8 -14 15 -16 15 -2
0 -1 -7 2 -15z"/>
<path d="M0 569 c0 -13 6 -20 18 -18 9 1 25 -1 35 -6 10 -4 21 -4 24 -1 4 4
-3 9 -15 13 -12 3 -22 11 -22 17 0 6 -9 12 -20 13 -14 1 -20 -4 -20 -18z"/>
<path d="M60 576 c0 -2 9 -6 20 -9 11 -3 18 -1 14 4 -5 9 -34 13 -34 5z"/>
<path d="M1313 568 c1 -7 9 -16 17 -21 9 -4 3 -5 -12 -2 -16 3 -28 1 -28 -5 0
-5 9 -10 19 -10 11 0 26 -3 34 -6 19 -7 17 17 -2 40 -16 19 -32 21 -28 4z"/>
<path d="M2328 573 c7 -3 16 -2 19 1 4 3 -2 6 -13 5 -11 0 -14 -3 -6 -6z"/>
<path d="M400 560 c-25 -4 -35 -8 -22 -8 13 -1 21 -6 17 -12 -3 -5 -13 -6 -22
-3 -10 4 -14 2 -9 -5 3 -6 -4 -18 -16 -26 -12 -9 -17 -16 -10 -16 6 0 12 -10
12 -22 0 -18 -2 -20 -10 -8 -11 19 -25 6 -16 -16 5 -13 16 -16 61 -12 30 3 52
1 49 -4 -3 -4 2 -5 10 -2 9 3 14 10 13 15 -3 15 73 55 81 43 8 -12 43 -28 55
-25 4 1 18 -5 30 -14 12 -8 17 -15 11 -15 -5 0 -15 5 -22 12 -9 9 -12 9 -12 1
0 -14 43 -29 47 -17 4 12 83 5 83 -7 0 -5 11 -9 25 -9 27 0 34 15 10 24 -8 3
-15 12 -15 20 0 7 -10 16 -22 19 -13 2 -30 7 -38 9 -8 3 -12 3 -7 1 4 -3 5 -9
1 -14 -3 -5 0 -9 5 -9 6 0 11 -4 11 -10 0 -6 -10 -5 -25 2 -13 6 -22 14 -20
18 3 4 -4 10 -15 13 -11 3 -20 0 -20 -6 0 -7 -13 3 -29 22 -26 32 -29 33 -39
15 -6 -10 -12 -14 -12 -9 0 6 -20 9 -45 8 -38 -1 -44 1 -34 13 14 17 -2 19
-20 2 -11 -11 -13 -10 -7 5 3 10 6 21 6 23 0 3 5 2 12 -2 7 -4 8 -3 4 4 -4 7
-8 11 -9 10 -1 0 -22 -4 -47 -8z m190 -86 c0 -8 -4 -12 -10 -9 -5 3 -10 13
-10 21 0 8 5 12 10 9 6 -3 10 -13 10 -21z m-183 0 c-3 -3 -12 -4 -19 -1 -8 3
-5 6 6 6 11 1 17 -2 13 -5z m-17 -24 c0 -5 -5 -10 -11 -10 -5 0 -7 5 -4 10 3
6 8 10 11 10 2 0 4 -4 4 -10z"/>
<path d="M2645 550 c3 -5 8 -10 11 -10 2 0 4 5 4 10 0 6 -5 10 -11 10 -5 0 -7
-4 -4 -10z"/>
<path d="M120 546 c0 -2 8 -10 18 -17 15 -13 16 -12 3 4 -13 16 -21 21 -21 13z"/>
<path d="M619 529 c-8 -15 -8 -19 0 -15 6 4 11 2 11 -3 0 -6 14 -11 31 -11 17
0 28 4 24 10 -3 5 -12 7 -19 4 -7 -3 -18 1 -24 9 -10 12 -7 13 15 10 22 -4 25
-2 13 6 -23 16 -38 13 -51 -10z"/>
<path d="M480 530 c0 -5 5 -10 11 -10 5 0 7 5 4 10 -3 6 -8 10 -11 10 -2 0 -4
-4 -4 -10z"/>
<path d="M1160 531 c0 -16 38 -23 57 -11 15 9 15 10 -6 4 -16 -4 -21 -3 -17 5
4 7 -1 11 -13 11 -12 0 -21 -4 -21 -9z"/>
<path d="M705 513 c21 -14 59 -18 51 -4 -3 5 -20 11 -37 13 -29 5 -30 4 -14
-9z"/>
<path d="M3937 523 c-14 -4 -16 -8 -6 -19 13 -16 64 -20 54 -4 -3 6 2 10 11
10 10 0 15 3 11 6 -3 4 -14 3 -24 0 -23 -9 -29 -8 -25 4 1 6 1 9 0 9 -2 -1
-11 -3 -21 -6z"/>
<path d="M4205 520 c-4 -6 -11 -7 -17 -4 -7 4 -8 2 -4 -4 4 -7 1 -12 -8 -12
-9 0 -16 -3 -16 -7 0 -11 -52 -10 -68 1 -7 4 -16 5 -19 2 -4 -3 -2 -6 4 -6 6
0 18 -11 27 -25 15 -23 15 -24 -1 -19 -12 4 -9 -1 7 -15 25 -20 10 -25 -20 -6
-24 15 -52 17 -44 3 4 -7 -1 -6 -12 4 -10 9 -37 19 -59 23 -29 5 -36 4 -25 -4
8 -6 15 -14 16 -18 0 -4 4 -20 8 -35 9 -31 33 -28 46 6 6 15 9 17 9 5 2 -35
115 -33 179 3 18 10 39 18 46 18 8 0 16 8 18 18 4 14 -4 24 -29 37 -20 11 -32
24 -29 32 6 15 0 17 -9 3z m-65 -65 c14 -19 14 -19 -2 -6 -10 7 -18 18 -18 24
0 6 1 8 3 6 1 -2 9 -13 17 -24z m-136 -30 c-4 -8 -11 -12 -16 -9 -6 4 -5 10 3
15 19 12 19 11 13 -6z"/>
<path d="M247 514 c-12 -12 4 -24 33 -24 16 0 32 5 36 11 5 9 -4 10 -32 5 -28
-5 -35 -4 -24 3 8 6 10 11 4 11 -6 0 -14 -3 -17 -6z"/>
<path d="M1845 510 c3 -5 16 -10 28 -9 21 0 21 1 2 9 -28 12 -37 12 -30 0z"/>
<path d="M3230 510 c0 -5 5 -10 10 -10 6 0 10 5 10 10 0 6 -4 10 -10 10 -5 0
-10 -4 -10 -10z"/>
<path d="M3600 516 c0 -2 7 -7 16 -10 8 -3 12 -2 9 4 -6 10 -25 14 -25 6z"/>
<path d="M3780 516 c0 -2 7 -7 16 -10 8 -3 12 -2 9 4 -6 10 -25 14 -25 6z"/>
<path d="M4026 505 c-3 -8 -1 -15 4 -15 6 0 10 7 10 15 0 8 -2 15 -4 15 -2 0
-6 -7 -10 -15z"/>
<path d="M770 506 c0 -2 7 -7 16 -10 8 -3 12 -2 9 4 -6 10 -25 14 -25 6z"/>
<path d="M196 479 c10 -11 19 -26 20 -33 3 -20 57 -71 79 -74 27 -5 35 -14 10
-12 -33 4 -47 1 -40 -9 3 -6 -7 -6 -27 0 -30 8 -31 8 -16 -8 14 -13 23 -14 58
-5 23 6 51 9 61 7 13 -3 17 0 12 8 -4 7 -8 14 -9 17 -8 41 -18 60 -25 48 -7
-10 -9 -10 -9 3 0 12 -7 15 -25 11 -15 -2 -22 -9 -18 -16 3 -6 -3 -2 -15 8
-12 11 -22 26 -22 35 0 9 -12 21 -26 28 -26 12 -26 12 -8 -8z"/>
<path d="M1408 493 c7 -3 16 -2 19 1 4 3 -2 6 -13 5 -11 0 -14 -3 -6 -6z"/>
<path d="M2332 495 c10 -11 48 -14 48 -4 0 5 -12 9 -27 9 -14 0 -24 -2 -21 -5z"/>
<path d="M3159 489 c-12 -7 -12 -9 1 -10 8 -1 18 -1 23 0 4 0 7 -5 7 -13 0
-19 26 -40 35 -26 3 5 -1 10 -9 10 -8 0 -13 6 -11 13 7 17 -28 37 -46 26z"/>
<path d="M3706 492 c-3 -4 4 -9 15 -9 23 -2 25 3 4 10 -8 4 -16 3 -19 -1z"/>
<path d="M1030 480 c0 -5 7 -10 16 -10 8 0 12 5 9 10 -3 6 -10 10 -16 10 -5 0
-9 -4 -9 -10z"/>
<path d="M2540 474 c-34 -15 -39 -29 -12 -38 9 -3 23 -9 31 -12 10 -5 11 -2 6
7 -4 8 2 4 14 -9 19 -19 31 -22 79 -20 31 2 56 7 54 11 -1 4 -5 14 -8 22 -3 8
-10 12 -15 9 -5 -3 -9 0 -9 6 0 6 -5 8 -11 5 -6 -4 -16 0 -22 8 -17 21 -70 26
-107 11z"/>
<path d="M3350 480 c0 -5 5 -10 10 -10 6 0 10 5 10 10 0 6 -4 10 -10 10 -5 0
-10 -4 -10 -10z"/>
<path d="M4458 473 c7 -3 16 -2 19 1 4 3 -2 6 -13 5 -11 0 -14 -3 -6 -6z"/>
<path d="M823 450 c-1 -11 2 -18 8 -15 11 7 12 35 1 35 -4 0 -8 -9 -9 -20z"/>
<path d="M2375 459 c-4 -6 -1 -15 6 -20 21 -14 64 -6 64 11 0 18 -60 26 -70 9z"/>
<path d="M2478 463 c7 -3 16 -2 19 1 4 3 -2 6 -13 5 -11 0 -14 -3 -6 -6z"/>
<path d="M775 450 c-3 -5 1 -10 10 -10 9 0 13 5 10 10 -3 6 -8 10 -10 10 -2 0
-7 -4 -10 -10z"/>
<path d="M1058 453 c6 -2 18 -2 25 0 6 3 1 5 -13 5 -14 0 -19 -2 -12 -5z"/>
<path d="M2161 446 c11 -12 69 -25 69 -15 0 5 -9 9 -19 9 -11 0 -28 3 -38 7
-10 3 -15 3 -12 -1z"/>
<path d="M3800 440 c0 -6 7 -10 15 -10 8 0 15 2 15 4 0 2 -7 6 -15 10 -8 3
-15 1 -15 -4z"/>
<path d="M1320 436 c0 -3 9 -10 20 -16 11 -6 20 -8 20 -6 0 3 -9 10 -20 16
-11 6 -20 8 -20 6z"/>
<path d="M3790 410 c-18 -12 -2 -12 25 0 13 6 15 9 5 9 -8 0 -22 -4 -30 -9z"/>
<path d="M355 400 c-4 -6 1 -7 11 -3 13 5 16 2 11 -9 -4 -12 -1 -14 14 -11 10
3 19 10 19 15 0 5 -4 7 -9 3 -5 -3 -12 -1 -16 5 -8 13 -22 13 -30 0z"/>
<path d="M175 380 c3 -5 8 -10 11 -10 2 0 4 5 4 10 0 6 -5 10 -11 10 -5 0 -7
-4 -4 -10z"/>
<path d="M2690 380 c0 -5 5 -10 10 -10 6 0 10 5 10 10 0 6 -4 10 -10 10 -5 0
-10 -4 -10 -10z"/>
<path d="M1400 370 c0 -5 5 -10 11 -10 5 0 7 5 4 10 -3 6 -8 10 -11 10 -2 0
-4 -4 -4 -10z"/>
<path d="M4145 370 c-16 -7 -17 -9 -3 -9 9 -1 20 4 23 9 7 11 7 11 -20 0z"/>
<path d="M416 347 c13 -10 22 -23 19 -28 -4 -5 7 -9 24 -9 24 0 29 4 28 20 -1
11 -7 20 -15 20 -7 0 -11 3 -9 8 3 4 -12 7 -33 8 l-38 0 24 -19z"/>
<path d="M1538 359 c-8 -6 1 -9 25 -9 20 0 37 2 37 4 0 9 -50 12 -62 5z"/>
<path d="M2658 363 c7 -3 16 -2 19 1 4 3 -2 6 -13 5 -11 0 -14 -3 -6 -6z"/>
<path d="M4056 361 c9 -9 45 -11 39 -2 -3 6 -14 9 -25 8 -10 -1 -17 -3 -14 -6z"/>
<path d="M760 350 c0 -13 20 -13 40 0 12 8 9 10 -12 10 -16 0 -28 -4 -28 -10z"/>
<path d="M2600 350 c0 -5 5 -10 11 -10 5 0 7 5 4 10 -3 6 -8 10 -11 10 -2 0
-4 -4 -4 -10z"/>
<path d="M169 343 c-1 -5 -2 -20 -3 -35 0 -14 -5 -30 -10 -35 -5 -5 -6 -2 -1
6 6 10 4 12 -5 6 -10 -6 -9 -11 6 -23 18 -14 18 -14 1 -8 -24 8 -50 -17 -34
-33 6 -6 8 -11 4 -11 -3 0 -15 10 -27 22 -11 12 -22 19 -25 16 -13 -12 -6 -67
14 -116 15 -37 18 -52 9 -51 -21 2 -58 -13 -58 -23 0 -6 -7 -5 -15 2 -12 10
-15 10 -16 -1 0 -8 -2 -24 -5 -36 l-4 -23 172 0 c131 0 169 3 160 12 -6 6 -19
12 -29 13 -10 1 -28 5 -41 9 -15 5 -27 2 -38 -9 -9 -9 -19 -13 -22 -10 -4 3 0
10 8 15 12 8 10 10 -8 10 -15 0 -21 4 -16 12 5 8 2 9 -9 5 -9 -3 -16 -3 -15 1
4 12 -26 52 -39 52 -6 0 -15 4 -18 10 -3 6 1 7 9 4 10 -4 16 -1 16 7 0 12 2
12 9 0 12 -18 91 -22 98 -4 3 7 10 10 16 6 6 -3 7 -1 3 5 -4 7 -14 12 -23 12
-13 0 -13 3 -3 15 8 9 9 15 2 15 -6 0 -14 -5 -17 -10 -4 -6 -11 -8 -16 -4 -7
4 -6 10 0 18 8 9 1 16 -24 25 -20 7 -33 17 -29 22 3 6 13 8 21 4 20 -7 53 22
47 40 -3 7 5 20 18 30 l23 16 -30 -6 c-21 -5 -26 -4 -16 3 11 8 10 12 -7 21
-24 13 -32 14 -33 4z"/>
<path d="M840 340 c-11 -7 -6 -9 17 -7 18 1 33 5 33 10 0 10 -32 9 -50 -3z"/>
<path d="M2637 343 c-11 -11 -8 -20 7 -20 8 0 12 6 9 14 -6 15 -7 15 -16 6z"/>
<path d="M900 336 c0 -2 11 -6 25 -8 13 -3 22 -1 19 3 -5 9 -44 13 -44 5z"/>
<path d="M982 323 c8 -11 7 -12 -8 -7 -15 6 -17 4 -7 -6 7 -8 19 -10 30 -5 10
5 24 7 31 6 6 -1 12 2 12 7 0 6 -16 12 -35 14 -27 3 -32 1 -23 -9z"/>
<path d="M1756 329 c4 -7 44 0 44 7 0 2 -11 3 -24 2 -14 -1 -23 -5 -20 -9z"/>
<path d="M1288 298 c6 -6 18 -8 28 -6 14 3 12 5 -9 10 -19 3 -25 2 -19 -4z"/>
<path d="M2680 306 c0 -2 7 -9 15 -16 12 -10 15 -10 15 4 0 9 -7 16 -15 16 -8
0 -15 -2 -15 -4z"/>
<path d="M2736 295 c-3 -9 -6 -24 -5 -33 0 -9 5 -4 10 12 9 32 6 48 -5 21z"/>
<path d="M2646 291 c-4 -7 -5 -15 -2 -18 9 -9 19 4 14 18 -4 11 -6 11 -12 0z"/>
<path d="M1065 270 c-3 -5 -2 -10 4 -10 5 0 13 5 16 10 3 6 2 10 -4 10 -5 0
-13 -4 -16 -10z"/>
<path d="M1128 273 c7 -3 16 -2 19 1 4 3 -2 6 -13 5 -11 0 -14 -3 -6 -6z"/>
<path d="M1708 263 c7 -3 16 -2 19 1 4 3 -2 6 -13 5 -11 0 -14 -3 -6 -6z"/>
<path d="M1185 230 c3 -5 11 -10 16 -10 6 0 7 5 4 10 -3 6 -11 10 -16 10 -6 0
-7 -4 -4 -10z"/>
<path d="M2745 210 c-3 -5 1 -10 10 -10 9 0 13 5 10 10 -3 6 -8 10 -10 10 -2
0 -7 -4 -10 -10z"/>
<path d="M2840 180 c-10 -6 -11 -10 -2 -10 6 0 12 -5 12 -10 0 -6 -11 -8 -25
-4 -21 5 -25 3 -25 -16 0 -12 7 -28 15 -36 8 -9 15 -11 15 -5 0 6 13 11 28 11
26 0 28 3 26 33 -1 17 -2 35 -3 40 -2 10 -23 9 -41 -3z"/>
<path d="M2906 183 c-11 -11 -7 -20 9 -20 8 0 15 4 15 8 0 11 -16 20 -24 12z"/>
<path d="M3744 183 c3 -6 2 -14 -4 -18 -5 -3 -10 -11 -10 -18 0 -6 7 -4 17 6
14 14 15 19 4 29 -9 9 -12 9 -7 1z"/>
<path d="M3715 169 c-4 -6 -5 -12 -2 -15 2 -3 7 2 10 11 7 17 1 20 -8 4z"/>
<path d="M4180 176 c0 -2 8 -10 18 -17 15 -13 16 -12 3 4 -13 16 -21 21 -21
13z"/>
<path d="M2746 157 c3 -10 9 -15 12 -12 3 3 0 11 -7 18 -10 9 -11 8 -5 -6z"/>
<path d="M2070 151 c0 -19 22 -23 38 -7 15 15 14 16 -11 16 -15 0 -27 -4 -27
-9z"/>
<path d="M2533 140 c14 -11 29 -20 34 -20 11 1 -37 40 -49 40 -6 0 1 -9 15
-20z"/>
<path d="M2926 135 c5 -11 1 -14 -12 -9 -14 4 -16 3 -5 -4 11 -8 11 -10 0 -15
-10 -4 -7 -8 9 -12 12 -4 22 -12 22 -19 0 -6 5 -3 11 6 7 13 5 24 -7 43 -18
28 -26 33 -18 10z m19 -25 c3 -5 1 -10 -4 -10 -6 0 -11 5 -11 10 0 6 2 10 4
10 3 0 8 -4 11 -10z"/>
<path d="M2125 126 c-19 -8 -25 -15 -17 -20 6 -4 20 -2 31 3 10 6 28 9 40 6
11 -2 24 1 27 7 4 6 2 8 -4 4 -6 -3 -13 -2 -17 4 -8 13 -23 12 -60 -4z"/>
<path d="M2615 130 c3 -5 8 -10 11 -10 2 0 4 5 4 10 0 6 -5 10 -11 10 -5 0 -7
-4 -4 -10z"/>
<path d="M2590 120 c0 -5 9 -14 20 -20 11 -6 20 -9 20 -8 0 2 -9 11 -20 21
-11 9 -20 13 -20 7z"/>
<path d="M530 110 c-12 -8 -9 -9 12 -8 15 1 24 6 22 10 -7 10 -16 10 -34 -2z"/>
<path d="M2745 99 c4 -17 2 -20 -7 -11 -17 17 -28 15 -21 -4 3 -8 17 -20 30
-25 28 -10 53 -1 32 12 -8 5 -14 16 -14 25 0 10 -5 19 -12 21 -8 3 -11 -4 -8
-18z"/>
<path d="M588 93 c6 -2 12 -9 12 -14 0 -6 -8 -6 -19 1 -15 8 -22 7 -29 -5 -4
-9 -22 -17 -38 -19 -37 -4 -37 -19 2 -26 16 -3 25 -8 19 -12 -12 -7 -50 6 -59
21 -9 15 -56 -8 -50 -24 4 -10 57 -13 227 -14 213 -2 223 -1 235 19 11 18 10
20 -18 20 -17 0 -30 -5 -30 -12 0 -8 -5 -6 -10 4 -11 17 -45 18 -45 0 0 -6 -4
-14 -9 -19 -5 -5 -6 -3 -2 5 4 6 3 12 -3 12 -5 0 -12 -6 -15 -12 -3 -7 -3 -2
0 10 5 21 4 23 -15 13 -12 -7 -21 -8 -21 -4 0 4 -5 2 -12 -5 -14 -14 -28 -16
-28 -3 0 5 14 14 31 21 24 10 36 11 50 2 29 -18 23 3 -6 22 -15 10 -25 12 -25
6 0 -6 -4 -9 -9 -6 -4 3 -17 -1 -27 -9 -23 -17 -38 -19 -28 -4 3 6 0 15 -7 20
-20 12 -30 11 -27 -3 2 -12 -43 -68 -55 -68 -2 0 -8 7 -11 16 -3 8 -2 12 4 9
6 -3 10 -2 10 4 0 6 11 13 25 17 25 6 25 7 9 25 -9 11 -22 19 -28 18 -6 0 -6
-3 2 -6z"/>
<path d="M675 90 c3 -5 11 -10 16 -10 6 0 7 5 4 10 -3 6 -11 10 -16 10 -6 0
-7 -4 -4 -10z"/>
<path d="M2085 90 c-8 -13 -1 -23 18 -26 7 -1 17 -3 22 -4 16 -4 75 12 75 20
0 11 -43 18 -66 10 -10 -4 -24 -3 -31 2 -7 6 -14 5 -18 -2z"/>
<path d="M2833 85 c-7 -8 -13 -19 -13 -25 0 -15 60 -16 70 0 3 4 12 10 20 13
8 3 0 6 -18 6 -19 1 -31 5 -27 11 9 15 -18 11 -32 -5z"/>
<path d="M965 80 c-3 -5 3 -10 15 -10 12 0 18 5 15 10 -3 6 -10 10 -15 10 -5
0 -12 -4 -15 -10z"/>
<path d="M2960 66 c0 -2 7 -6 15 -10 8 -3 15 -1 15 4 0 6 -7 10 -15 10 -8 0
-15 -2 -15 -4z"/>
<path d="M405 40 c-3 -5 -13 -7 -23 -4 -15 5 -15 4 -2 -6 13 -10 11 -11 -7 -7
-16 4 -23 0 -23 -10 0 -22 40 -12 58 15 8 12 12 22 9 22 -3 0 -8 -4 -12 -10z"/>
<path d="M1820 46 c0 -2 11 -6 25 -8 13 -3 22 -1 19 3 -5 9 -44 13 -44 5z"/>
<path d="M2060 41 c0 -16 28 -32 64 -38 24 -4 36 -2 36 6 0 6 3 10 8 10 4 -1
16 -1 27 1 l20 1 -20 9 c-32 14 -45 11 -45 -7 -1 -17 -1 -17 -11 0 -7 12 -17
16 -30 12 -11 -4 -19 -2 -19 4 0 6 -7 11 -15 11 -8 0 -15 -4 -15 -9z"/>
<path d="M4080 46 c0 -2 8 -10 18 -17 15 -13 16 -12 3 4 -13 16 -21 21 -21 13z"/>
<path d="M1010 30 c0 -5 5 -10 11 -10 5 0 7 5 4 10 -3 6 -8 10 -11 10 -2 0 -4
-4 -4 -10z"/>
<path d="M1518 28 c-27 -16 3 -19 44 -5 l43 16 -38 -2 c-21 0 -43 -4 -49 -9z"/>
<path d="M2425 30 c-3 -5 -3 -15 0 -20 7 -12 135 -14 135 -2 0 5 -23 9 -50 9
-28 1 -57 6 -64 12 -10 8 -16 9 -21 1z"/>
<path d="M2360 21 c0 -6 -18 -9 -45 -6 -26 3 -45 1 -45 -5 0 -13 97 -13 105
-1 3 5 1 12 -5 16 -5 3 -10 2 -10 -4z"/>
<path d="M2680 26 c0 -2 7 -7 16 -10 8 -3 12 -2 9 4 -6 10 -25 14 -25 6z"/>
<path d="M3030 26 c0 -2 8 -10 18 -17 15 -13 16 -12 3 4 -13 16 -21 21 -21 13z"/>
<path d="M4150 20 c0 -5 5 -10 11 -10 5 0 7 5 4 10 -3 6 -8 10 -11 10 -2 0 -4
-4 -4 -10z"/>
<path d="M1880 9 c0 -5 11 -9 25 -9 14 0 25 2 25 4 0 2 -11 6 -25 8 -14 3 -25
1 -25 -3z"/>
<path d="M1663 3 c9 -2 23 -2 30 0 6 3 -1 5 -18 5 -16 0 -22 -2 -12 -5z"/>
</g>
</svg>
